<svg xmlns="http://www.w3.org/2000/svg" xmlns:xlink="http://www.w3.org/1999/xlink" viewBox="0 0 155 29"><path d="M 13.33 0 C 14.654 0 15.875 0.104 16.994 0.41 C 18.113 0.615 19.029 1.025 19.843 1.538 C 20.658 2.05 21.268 2.768 21.675 3.691 C 22.082 4.613 22.286 5.742 22.286 6.972 C 22.286 8.407 21.981 9.637 21.268 10.561 C 20.658 11.482 19.64 12.303 18.419 12.918 C 20.149 13.431 21.472 14.353 22.286 15.583 C 23.1 16.814 23.609 18.352 23.609 20.095 C 23.609 21.529 23.304 22.76 22.794 23.786 C 22.286 24.811 21.471 25.734 20.556 26.35 C 19.64 26.966 18.521 27.479 17.3 27.786 C 16.079 28.092 14.857 28.298 13.636 28.298 L 0 28.298 L 0 0 Z M 12.516 11.483 C 13.635 11.483 14.551 11.176 15.263 10.663 C 15.976 10.15 16.28 9.227 16.28 8.099 C 16.28 7.484 16.179 6.868 15.976 6.459 C 15.772 6.049 15.467 5.741 15.06 5.433 C 14.654 5.228 14.246 5.024 13.737 4.921 C 13.228 4.818 12.72 4.818 12.109 4.818 L 6.207 4.818 L 6.207 11.482 L 12.516 11.482 Z M 12.822 23.582 C 13.432 23.582 14.043 23.479 14.552 23.377 C 15.06 23.274 15.569 23.069 15.977 22.761 C 16.383 22.454 16.689 22.146 16.994 21.633 C 17.198 21.121 17.401 20.504 17.401 19.787 C 17.401 18.352 16.994 17.326 16.18 16.608 C 15.365 15.992 14.246 15.686 12.924 15.686 L 6.208 15.686 L 6.208 23.581 L 12.822 23.581 Z M 32.461 23.479 C 33.276 24.3 34.496 24.709 36.125 24.709 C 37.244 24.709 38.261 24.402 39.076 23.889 C 39.89 23.272 40.399 22.658 40.602 22.042 L 45.588 22.042 C 44.773 24.503 43.553 26.247 41.924 27.374 C 40.296 28.399 38.362 29.015 36.022 29.015 C 34.394 29.015 32.969 28.707 31.647 28.193 C 30.323 27.681 29.306 26.964 28.391 25.939 C 27.475 25.017 26.763 23.889 26.356 22.555 C 25.847 21.221 25.643 19.787 25.643 18.146 C 25.643 16.609 25.847 15.174 26.356 13.839 C 26.865 12.506 27.577 11.379 28.493 10.354 C 29.408 9.432 30.527 8.611 31.749 8.099 C 33.072 7.586 34.394 7.278 36.023 7.278 C 37.753 7.278 39.279 7.585 40.602 8.303 C 41.925 9.021 42.942 9.841 43.757 11.071 C 44.571 12.199 45.182 13.531 45.589 14.967 C 45.792 16.403 45.893 17.838 45.792 19.478 L 31.036 19.478 C 31.036 21.122 31.647 22.659 32.461 23.479 Z M 38.871 12.714 C 38.158 11.996 37.039 11.586 35.716 11.586 C 34.801 11.586 34.088 11.79 33.477 12.098 C 32.867 12.406 32.46 12.815 32.052 13.226 C 31.646 13.637 31.442 14.149 31.34 14.662 C 31.238 15.175 31.136 15.583 31.136 15.995 L 40.294 15.995 C 40.092 14.457 39.583 13.432 38.871 12.714 Z M 53.727 0 L 53.727 10.664 L 53.829 10.664 C 54.542 9.433 55.457 8.613 56.576 8.1 C 57.696 7.587 58.713 7.279 59.832 7.279 C 61.358 7.279 62.58 7.485 63.496 7.894 C 64.411 8.304 65.226 8.92 65.735 9.637 C 66.243 10.355 66.65 11.278 66.854 12.303 C 67.058 13.328 67.159 14.457 67.159 15.789 L 67.159 28.4 L 61.562 28.4 L 61.562 16.815 C 61.562 15.072 61.257 13.841 60.748 13.022 C 60.239 12.201 59.323 11.791 58.001 11.791 C 56.475 11.791 55.355 12.304 54.745 13.126 C 54.032 14.047 53.727 15.585 53.727 17.636 L 53.727 28.401 L 48.131 28.401 L 48.131 0 Z M 71.23 10.868 C 71.841 9.946 72.553 9.33 73.469 8.714 C 74.384 8.202 75.402 7.793 76.522 7.586 C 77.629 7.382 78.753 7.279 79.879 7.279 C 80.897 7.279 81.914 7.382 83.035 7.485 C 84.053 7.587 85.07 7.893 85.884 8.305 C 86.799 8.714 87.41 9.33 88.021 10.048 C 88.529 10.767 88.835 11.792 88.835 13.023 L 88.835 23.788 C 88.835 24.71 88.937 25.634 89.039 26.454 C 89.141 27.275 89.444 27.992 89.751 28.402 L 84.053 28.402 C 83.848 28.196 83.747 27.787 83.646 27.481 C 83.544 27.172 83.544 26.763 83.544 26.455 C 82.629 27.377 81.61 27.993 80.389 28.403 C 79.168 28.813 77.947 28.915 76.726 28.915 C 75.708 28.915 74.894 28.813 73.978 28.507 C 73.164 28.301 72.452 27.89 71.74 27.378 C 71.129 26.865 70.62 26.25 70.214 25.43 C 69.909 24.609 69.705 23.789 69.705 22.661 C 69.705 21.532 69.909 20.507 70.316 19.79 C 70.722 19.073 71.231 18.457 71.842 17.945 C 72.452 17.536 73.267 17.124 74.08 16.92 C 74.895 16.715 75.708 16.511 76.625 16.407 L 79.067 16.1 C 79.881 15.997 80.593 15.895 81.204 15.793 C 81.814 15.587 82.323 15.383 82.73 15.075 C 83.136 14.767 83.238 14.357 83.238 13.742 C 83.238 13.127 83.136 12.614 82.933 12.306 C 82.73 11.999 82.425 11.691 82.119 11.485 C 81.813 11.28 81.406 11.178 81 11.076 C 80.593 10.973 80.084 10.973 79.575 10.973 C 78.455 10.973 77.641 11.178 77.03 11.691 C 76.42 12.203 76.013 13.024 75.911 14.049 L 70.315 14.049 C 70.315 12.816 70.721 11.689 71.23 10.868 Z M 82.321 18.865 C 82.017 18.968 81.609 19.071 81.202 19.172 C 80.795 19.276 80.387 19.276 79.878 19.378 C 79.473 19.48 78.964 19.48 78.555 19.583 L 77.334 19.89 C 76.927 19.993 76.52 20.197 76.317 20.403 C 76.012 20.608 75.808 20.915 75.604 21.223 C 75.3 21.633 75.3 22.044 75.3 22.557 C 75.3 23.069 75.402 23.479 75.605 23.787 C 75.809 24.094 76.012 24.403 76.318 24.608 C 76.623 24.813 77.03 24.916 77.437 25.018 C 77.844 25.119 78.251 25.12 78.759 25.12 C 79.879 25.12 80.693 24.916 81.304 24.608 C 81.915 24.199 82.321 23.787 82.628 23.275 C 82.932 22.762 83.136 22.249 83.136 21.737 C 83.238 21.224 83.238 20.816 83.238 20.506 L 83.238 18.354 C 82.932 18.558 82.627 18.764 82.321 18.865 Z M 97.281 7.793 L 97.281 10.664 L 97.383 10.664 C 98.095 9.433 99.011 8.613 100.129 8.1 C 101.25 7.587 102.471 7.279 103.589 7.279 C 105.115 7.279 106.336 7.485 107.253 7.894 C 108.27 8.304 108.984 8.92 109.492 9.637 C 110.001 10.355 110.407 11.278 110.713 12.303 C 110.916 13.328 111.018 14.457 111.018 15.789 L 111.018 28.4 L 105.422 28.4 L 105.422 16.815 C 105.422 15.072 105.116 13.841 104.607 13.022 C 104.098 12.201 103.181 11.689 101.757 11.689 C 100.231 11.689 99.111 12.304 98.4 13.226 C 97.687 14.149 97.382 15.687 97.382 17.737 L 97.382 28.503 L 91.786 28.503 L 91.786 7.793 Z M 123.532 11.483 C 122.618 11.483 121.904 11.689 121.295 12.099 C 120.684 12.508 120.175 13.021 119.769 13.74 C 119.362 14.355 119.158 15.073 118.953 15.893 C 118.75 16.714 118.75 17.43 118.75 18.252 C 118.75 18.969 118.852 19.789 118.953 20.506 C 119.158 21.328 119.36 21.942 119.769 22.557 C 120.175 23.173 120.583 23.685 121.194 24.094 C 121.804 24.504 122.516 24.71 123.431 24.71 C 124.756 24.71 125.773 24.301 126.586 23.582 C 127.3 22.865 127.809 21.84 127.91 20.505 L 133.304 20.505 C 132.898 23.274 131.881 25.325 130.148 26.761 C 128.419 28.195 126.181 28.913 123.432 28.913 C 121.906 28.913 120.481 28.606 119.26 28.093 C 117.936 27.58 116.919 26.862 116.004 25.94 C 115.09 25.018 114.375 23.89 113.867 22.659 C 113.358 21.326 113.155 19.993 113.155 18.454 C 113.155 16.814 113.358 15.378 113.867 14.046 C 114.375 12.713 114.987 11.482 115.901 10.457 C 116.817 9.432 117.936 8.714 119.158 8.099 C 120.48 7.586 121.904 7.278 123.532 7.278 C 124.755 7.278 125.874 7.484 126.992 7.791 C 128.11 8.098 129.129 8.611 129.943 9.226 C 130.859 9.842 131.571 10.662 132.08 11.687 C 132.588 12.609 132.895 13.839 132.995 15.173 L 127.501 15.173 C 127.299 12.714 125.976 11.483 123.532 11.483 Z M 29.917 1.948 L 41.313 1.948 L 41.313 4.717 L 29.917 4.717 Z M 141.748 23.479 C 142.563 24.3 143.884 24.709 145.411 24.709 C 146.531 24.709 147.549 24.402 148.362 23.889 C 149.178 23.272 149.686 22.658 149.888 22.042 L 154.774 22.042 C 153.959 24.503 152.739 26.247 151.11 27.374 C 149.481 28.399 147.548 29.015 145.207 29.015 C 143.579 29.015 142.154 28.707 140.831 28.193 C 139.579 27.723 138.461 26.949 137.576 25.939 C 136.661 25.017 135.948 23.889 135.542 22.555 C 135.033 21.221 134.829 19.787 134.829 18.146 C 134.829 16.609 135.033 15.174 135.542 13.839 C 136.031 12.554 136.757 11.371 137.678 10.354 C 138.594 9.432 139.713 8.611 140.934 8.099 C 142.257 7.586 143.681 7.278 145.208 7.278 C 146.937 7.278 148.463 7.585 149.685 8.303 C 151.008 9.021 152.025 9.841 152.84 11.071 C 153.655 12.199 154.265 13.531 154.672 14.967 C 155.078 16.402 155.181 17.94 155.078 19.581 L 140.323 19.581 C 140.322 21.122 140.934 22.659 141.748 23.479 Z M 148.26 12.714 C 147.548 11.996 146.428 11.586 145.105 11.586 C 144.19 11.586 143.476 11.79 142.866 12.098 C 142.255 12.406 141.747 12.815 141.443 13.226 C 141.139 13.637 140.831 14.149 140.73 14.662 C 140.629 15.175 140.527 15.583 140.527 15.995 L 149.685 15.995 C 149.38 14.457 148.871 13.432 148.26 12.714 Z" fill="rgb(255,255,255)"/></svg>