<svg xmlns="http://www.w3.org/2000/svg" xmlns:xlink="http://www.w3.org/1999/xlink" viewBox="0 0 162 45" style="&#10;"><path d="M 65.744 9.82 C 65.658 11.128 65.014 12.43 63.537 13.186 C 61.915 14.014 60.35 13.129 60.166 11.347 C 60.008 9.798 61.01 8.043 62.416 7.413 C 64.167 6.631 65.74 7.627 65.744 9.82 Z" fill="rgb(255,255,255)"/><path d="M 161.012 24.995 C 160.255 23.981 159.918 23.937 159.032 24.852 C 157.955 25.964 156.78 26.949 155.433 27.723 C 153.188 29.012 150.3 29 148.648 27.671 C 148.049 27.189 147.381 26.619 147.637 25.761 C 147.888 24.927 148.735 25.194 149.368 25.142 C 152.907 24.848 155.962 23.663 157.863 20.492 C 160.307 16.421 158.008 11.432 153.493 11.096 C 151.117 10.92 149.007 11.754 147.221 13.346 C 144.516 15.758 143.305 18.866 142.817 22.341 C 142.407 25.239 140.567 27.221 138.225 28.736 C 136.871 29.613 135.814 28.848 135.911 27.216 C 135.983 26.001 136.22 24.806 136.517 23.621 C 137.654 19.103 138.966 14.63 140.267 10.155 C 141.093 7.317 141.941 4.485 142.782 1.652 C 142.938 1.127 143.046 0.608 142.435 0.284 C 140.987 -0.486 138.82 0.381 138.382 1.902 C 136.873 7.115 135.277 12.303 133.903 17.549 C 133.323 19.76 131.984 20.319 130.039 20.553 C 128.877 20.696 128.525 20.36 128.357 19.227 C 128.279 18.713 128.231 18.191 128.136 17.678 C 127.345 13.293 123.715 11.595 119.778 13.76 C 119.295 14.027 118.799 14.453 118.237 14.004 C 117.686 13.566 117.946 12.987 118.113 12.461 C 119.016 9.608 119.918 6.756 120.841 3.912 C 121.635 1.463 121.57 1.356 119.009 1.407 C 117.335 1.44 117.217 1.521 116.754 3.129 C 115.275 8.277 113.804 13.425 112.328 18.575 C 111.701 20.768 110.587 21.66 108.303 21.797 C 107.172 21.866 106.745 21.522 106.674 20.411 C 106.583 19.038 106.263 17.735 105.585 16.529 C 104.492 14.582 102.528 13.7 100.332 14.15 C 99.456 14.33 98.677 14.723 97.894 15.117 C 97.44 15.345 96.965 15.53 96.518 15.138 C 96.098 14.774 96.248 14.315 96.388 13.878 C 96.848 12.419 97.314 10.961 97.778 9.504 C 98.34 7.746 98.925 5.999 99.456 4.233 C 99.869 2.861 99.547 2.49 98.137 2.597 C 97.753 2.625 97.362 2.682 96.98 2.655 C 95.972 2.58 95.459 3.009 95.182 3.986 C 93.626 9.471 91.926 14.918 90.529 20.448 C 90.295 21.378 89.803 21.981 88.953 22.388 C 88.242 22.728 87.504 22.923 86.73 22.998 C 85.514 23.115 85.025 22.725 84.97 21.518 C 84.911 20.208 84.603 18.98 83.979 17.823 C 82.86 15.753 80.762 14.837 78.472 15.417 C 77.608 15.636 76.823 16.017 76.07 16.47 C 75.719 16.68 75.355 16.791 74.988 16.52 C 74.631 16.259 74.578 15.882 74.658 15.489 C 74.728 15.149 74.83 14.816 74.934 14.484 C 75.85 11.6 76.784 8.721 77.681 5.831 C 78.243 4.028 77.939 3.672 76.087 3.848 C 75.807 3.875 75.525 3.912 75.244 3.9 C 74.288 3.857 73.765 4.305 73.503 5.21 C 71.629 11.693 69.757 18.173 68.075 24.707 C 67.249 27.905 65.337 30.462 62.861 32.616 C 62.249 33.147 61.469 33.603 60.644 33.146 C 59.828 32.693 59.838 31.811 59.914 31.007 C 60.037 29.726 60.256 28.458 60.569 27.207 C 61.32 24.203 62.251 21.249 63.153 18.288 C 63.511 17.114 63.201 16.734 61.979 16.779 C 61.487 16.796 60.995 16.836 60.502 16.832 C 59.642 16.827 59.15 17.211 58.923 18.051 C 58.261 20.501 57.502 22.926 56.872 25.385 C 56.12 28.319 54.347 30.632 52.344 32.792 C 51.675 33.513 50.795 34.359 49.684 33.741 C 48.62 33.147 48.82 32.016 48.993 31.011 C 49.635 27.287 51.058 23.799 52.32 20.262 C 52.872 18.713 52.595 18.333 50.914 18.326 C 49.156 18.317 47.398 18.297 45.639 18.246 C 44.768 18.221 44.056 17.948 43.919 16.922 C 43.843 16.353 43.436 16.106 42.859 16.137 C 42.404 16.163 41.947 16.203 41.49 16.206 C 40.646 16.208 40.215 16.635 40.052 17.432 C 38.739 23.919 36.58 30.099 33.164 35.819 C 32.962 36.159 32.778 36.539 33.051 36.891 C 33.618 37.622 34.343 38.258 35.25 38.408 C 36.109 38.547 36.343 37.658 36.682 37.083 C 39.009 33.126 40.649 28.875 42.055 24.533 C 42.96 21.732 42.949 21.731 45.887 22.079 C 47.033 22.214 47.357 22.694 46.982 23.789 C 46.509 25.172 45.979 26.535 45.509 27.917 C 44.836 29.91 44.455 31.947 44.607 34.065 C 44.833 37.203 47.647 39 50.63 37.907 C 52.031 37.394 53.05 36.395 54.069 35.378 C 55.156 34.289 55.525 34.343 56.26 35.645 C 57.104 37.145 58.598 37.848 60.447 37.602 C 61.85 37.416 63.075 36.827 64.092 35.865 C 64.88 35.121 65.64 34.346 66.361 33.54 C 67.311 32.481 67.701 32.499 68.444 33.759 C 69.668 35.834 71.511 36.818 73.92 36.879 C 76.295 36.942 78.217 35.945 79.892 34.415 C 81.873 32.601 83.127 30.324 84.003 27.825 C 84.205 27.252 84.419 26.676 85.16 26.645 C 86.079 26.609 86.977 26.468 87.878 26.307 C 88.669 26.165 89.085 26.553 89.127 27.324 C 89.159 27.914 89.136 28.506 89.167 29.097 C 89.46 34.487 94.297 37.263 99.186 34.829 C 102.222 33.317 104.026 30.708 105.171 27.693 C 105.775 26.106 106.448 25.037 108.34 25.302 C 108.507 25.325 108.686 25.25 108.859 25.218 C 110.509 24.924 110.694 25.074 110.719 26.736 C 110.738 28.031 110.919 29.297 111.372 30.519 C 112.108 32.508 113.562 33.717 115.598 34.245 C 118.325 34.95 120.662 34.085 122.73 32.357 C 124.541 30.845 125.965 28.977 126.683 26.781 C 127.332 24.8 128.37 23.792 130.496 23.997 C 130.563 24.006 130.632 23.976 130.702 23.97 C 131.785 23.859 132.148 24.189 132.04 25.251 C 131.941 26.217 131.738 27.174 131.795 28.022 C 131.795 28.397 131.794 28.641 131.795 28.883 C 131.818 33.342 135.161 33.891 137.969 32.922 C 138.49 32.742 138.977 32.43 139.438 32.117 C 140.489 31.401 141.358 30.491 142.159 29.517 C 143.138 28.322 143.462 28.31 144.403 29.486 C 145.587 30.966 147.107 31.925 148.981 32.249 C 153.689 33.066 157.529 31.388 160.791 28.131 C 162.193 26.735 162.199 26.585 161.012 24.995 Z M 80.504 24.148 C 80.081 26.884 79.128 29.391 77.086 31.38 C 76.714 31.741 76.284 32.068 75.824 32.308 C 73.984 33.261 72.212 32.374 71.901 30.357 C 71.821 29.844 71.834 29.319 71.798 28.714 C 71.988 25.84 72.783 23.122 74.849 20.878 C 75.398 20.28 76.052 19.806 76.82 19.516 C 78.618 18.834 80.066 19.617 80.51 21.457 C 80.727 22.362 80.64 23.26 80.504 24.148 Z M 102.282 21.709 C 102.066 24.724 101.125 27.471 99.118 29.803 C 98.782 30.195 98.371 30.547 97.933 30.828 C 95.829 32.173 93.775 31.38 93.535 28.93 C 93.155 25.041 94.271 21.57 97.344 18.924 C 98.273 18.126 99.444 17.64 100.66 18.228 C 102.092 18.916 102.298 20.283 102.282 21.709 Z M 123.809 21.784 C 123.445 24.201 122.532 26.385 121.013 28.317 C 120.58 28.867 120.083 29.349 119.464 29.701 C 117.209 30.979 115.308 29.976 115.125 27.402 C 115.102 27.091 115.12 26.778 115.12 26.466 C 115.202 23.58 116.007 20.932 117.9 18.682 C 118.7 17.733 119.652 16.966 120.963 16.831 C 122.338 16.692 123.235 17.286 123.691 18.597 C 124.057 19.647 123.973 20.71 123.809 21.784 Z M 147.37 20.748 C 147.769 19.08 148.416 17.508 149.637 16.24 C 149.971 15.892 150.369 15.588 150.785 15.342 C 152.034 14.595 153.233 14.604 154.011 15.316 C 154.822 16.059 155.001 17.487 154.345 18.703 C 153.132 20.949 151.014 21.739 148.902 22.048 C 147.611 22.053 147.157 21.636 147.37 20.748 Z M 34.104 20.343 C 33.691 28.633 30.897 35.818 23.942 40.942 C 19.42 44.272 14.22 45.319 8.669 44.896 C 6.126 44.7 3.665 44.139 1.327 43.116 C -0.167 42.462 -0.285 42.112 0.408 40.642 C 1.556 38.217 1.556 38.22 3.972 39.276 C 4.166 39.361 4.36 39.445 4.558 39.513 C 5.792 39.945 6.236 39.741 6.571 38.502 C 7.248 35.983 7.871 33.45 8.559 30.934 C 9.945 25.872 11.36 20.812 12.769 15.756 C 13.179 14.286 13.326 14.188 14.89 14.131 C 15.345 14.115 15.804 14.085 16.259 14.067 C 17.401 14.019 17.747 14.415 17.434 15.519 C 16.716 18.063 15.951 20.592 15.225 23.134 C 13.765 28.251 12.397 33.393 11.114 38.556 C 10.623 40.527 11.061 40.966 13.154 40.741 C 18.541 40.164 22.572 37.407 25.474 33.04 C 28.764 28.09 30.089 22.656 29.037 16.744 C 27.901 10.374 22.668 6.627 16.173 7.551 C 13.119 7.987 10.352 9.111 7.874 10.935 C 6.726 11.781 6.51 11.733 5.748 10.536 C 4.119 7.98 4.093 7.936 6.75 6.342 C 10.834 3.895 15.277 2.634 20.052 3.189 C 27.763 4.087 32.749 9.174 33.853 16.996 C 34.009 18.103 34.12 19.209 34.104 20.343 Z" fill="rgb(255,255,255)"/></svg>