<svg xmlns="http://www.w3.org/2000/svg" viewBox="0 0 1080 1080" width="1080" height="1080" preserveAspectRatio="xMidYMid slice" style="width: 100%; height: 100%; transform: translate3d(0px, 0px, 0px);"><defs><clipPath id="__lottie_element_2"><rect width="1080" height="1080" x="0" y="0"></rect></clipPath><mask id="__lottie_element_6"><path fill="#ffffff" clip-rule="nonzero" d="M0,0  h1080 v1080 h-1080 v-1080  M208.5330047607422,129.78399658203125 C208.5330047607422,129.78399658203125 160.59100341796875,239.98800659179688 160.59100341796875,239.98800659179688 C160.59100341796875,239.98800659179688 8.97599983215332,293.1440124511719 8.97599983215332,293.1440124511719 C8.97599983215332,293.1440124511719 47.68600082397461,300.40899658203125 47.68600082397461,300.40899658203125 C47.68600082397461,300.40899658203125 168.97900390625,268.79998779296875 168.97900390625,268.79998779296875 C168.97900390625,268.79998779296875 229.6540069580078,156.5659942626953 229.6540069580078,156.5659942626953 C229.6540069580078,156.5659942626953 208.5330047607422,129.78399658203125 208.5330047607422,129.78399658203125" fill-opacity="1"></path></mask><mask id="__lottie_element_4" mask-type="alpha"><use href="#__lottie_element_19"></use></mask><symbol id="__lottie_element_19"><g mask="url(#__lottie_element_6)" transform="matrix(1.001056432723999,0,0,1.001056432723999,-0.5704736709594727,-0.5704736709594727)" opacity="1"><g opacity="1" transform="matrix(1,0,0,1,0,0)"><path fill="rgb(218,255,153)" fill-opacity="1" d=" M757.6950073242188,698.8319702148438 C757.6950073242188,698.8319702148438 737.823974609375,687.8519897460938 725.333984375,698.7449951171875 C712.843994140625,709.6380004882812 721.7960205078125,732.6630249023438 721.7960205078125,732.6630249023438 C721.7960205078125,732.6630249023438 694.5900268554688,720.1170043945312 686.64501953125,728.93798828125 C678.7000122070312,737.7589721679688 676.281982421875,757.3590087890625 676.281982421875,757.3590087890625 C676.281982421875,757.3590087890625 644.322998046875,756.1389770507812 644.322998046875,756.1389770507812 C644.322998046875,756.1389770507812 634.447021484375,786.0479736328125 634.447021484375,786.0479736328125 C634.447021484375,786.0479736328125 790.2429809570312,869.7130126953125 790.2429809570312,869.7130126953125 C790.2429809570312,869.7130126953125 757.6950073242188,698.8319702148438 757.6950073242188,698.8319702148438z"></path><path stroke-linecap="butt" stroke-linejoin="miter" fill-opacity="0" stroke-miterlimit="4" stroke="rgb(5,45,35)" stroke-opacity="1" stroke-width="0" d=" M757.6950073242188,698.8319702148438 C757.6950073242188,698.8319702148438 737.823974609375,687.8519897460938 725.333984375,698.7449951171875 C712.843994140625,709.6380004882812 721.7960205078125,732.6630249023438 721.7960205078125,732.6630249023438 C721.7960205078125,732.6630249023438 694.5900268554688,720.1170043945312 686.64501953125,728.93798828125 C678.7000122070312,737.7589721679688 676.281982421875,757.3590087890625 676.281982421875,757.3590087890625 C676.281982421875,757.3590087890625 644.322998046875,756.1389770507812 644.322998046875,756.1389770507812 C644.322998046875,756.1389770507812 634.447021484375,786.0479736328125 634.447021484375,786.0479736328125 C634.447021484375,786.0479736328125 790.2429809570312,869.7130126953125 790.2429809570312,869.7130126953125 C790.2429809570312,869.7130126953125 757.6950073242188,698.8319702148438 757.6950073242188,698.8319702148438z"></path></g><g opacity="1" transform="matrix(1,0,0,1,544.041015625,536.0490112304688)"><path fill="rgb(220,215,255)" fill-opacity="1" d=" M99.5770034790039,224.97500610351562 C110.6719970703125,215.39599609375 130.9340057373047,222.04600524902344 130.9340057373047,222.04600524902344 C130.9340057373047,222.04600524902344 124.86799621582031,198.87100219726562 143.5919952392578,194.60800170898438 C162.3159942626953,190.3459930419922 169.218994140625,192.6959991455078 169.218994140625,192.6959991455078 C169.218994140625,192.6959991455078 169.7050018310547,170.73699951171875 183.33099365234375,166.14100646972656 C191.16799926757812,163.4969940185547 205.8350067138672,164.8719940185547 216.90199279785156,166.51600646972656 C216.90199279785156,166.51600646972656 210.60400390625,129.90499877929688 210.60400390625,129.90499877929688 C210.60400390625,129.90499877929688 -66.23699951171875,-247.96499633789062 -66.23699951171875,-247.96499633789062 C-66.23699951171875,-247.96499633789062 -113.50299835205078,-158.33799743652344 -113.50299835205078,-158.33799743652344 C-113.50299835205078,-158.33799743652344 -213.47300720214844,-142.60400390625 -213.47300720214844,-142.60400390625 C-213.47300720214844,-142.60400390625 61.23500061035156,238.1820068359375 61.23500061035156,238.1820068359375 C61.23500061035156,238.1820068359375 96.45999908447266,256.6570129394531 96.45999908447266,256.6570129394531 C95.51599884033203,248.8489990234375 91.93099975585938,231.5760040283203 99.5770034790039,224.97500610351562z"></path></g><g opacity="1" transform="matrix(1,0,0,1,787.3839721679688,869.6740112304688)"><path fill="rgb(221,215,236)" fill-opacity="1" d=" M-2.5439999103546143,-1.2660000324249268 C-2.5439999103546143,-1.2660000324249268 2.5439999103546143,1.402999997138977 2.5439999103546143,1.402999997138977 C2.5439999103546143,1.402999997138977 2.062000036239624,-1.402999997138977 2.062000036239624,-1.402999997138977 C2.062000036239624,-1.402999997138977 -2.5439999103546143,-1.2660000324249268 -2.5439999103546143,-1.2660000324249268z"></path></g><g opacity="1" transform="matrix(1,0,0,1,364.85699462890625,282.5979919433594)"><path fill="rgb(5,45,35)" fill-opacity="1" d=" M-48.9739990234375,64.0469970703125 C-48.9739990234375,64.0469970703125 -57.69900131225586,51.05400085449219 -57.69900131225586,51.05400085449219 C-73.34400177001953,31.42300033569336 -69.92900085449219,2.7909998893737793 -50.104000091552734,-12.609000205993652 C-50.104000091552734,-12.609000205993652 -2.859999895095825,-49.310001373291016 -2.859999895095825,-49.310001373291016 C16.111000061035156,-64.0469970703125 43.30699920654297,-61.308998107910156 58.959999084472656,-43.08700180053711 C58.959999084472656,-43.08700180053711 73.34500122070312,-25.02400016784668 73.34500122070312,-25.02400016784668"></path></g><g opacity="1" transform="matrix(1,0,0,1,753.14599609375,824.3740234375)"><path fill="rgb(5,45,35)" fill-opacity="1" d=" M-20.350000381469727,-33.14099884033203 C-20.350000381469727,-33.14099884033203 -20.350000381469727,-33.14099884033203 -20.350000381469727,-33.14099884033203 C-38.23500061035156,-19.7549991607666 -36.053001403808594,7.703999996185303 -16.27899932861328,18.097999572753906 C-16.27899932861328,18.097999572753906 38.236000061035156,46.75 38.236000061035156,46.75 C38.236000061035156,46.75 27.819000244140625,-13.947999954223633 27.819000244140625,-13.947999954223633 C23.976999282836914,-36.33300018310547 -2.1659998893737793,-46.750999450683594 -20.350000381469727,-33.14099884033203z"></path></g><g opacity="1" transform="matrix(1,0,0,1,385.21600341796875,312.27398681640625)"><path stroke-linecap="round" stroke-linejoin="round" fill-opacity="0" stroke="rgb(5,45,35)" stroke-opacity="1" stroke-width="10.105" d=" M-66.58899688720703,64.3949966430664 C-66.58899688720703,64.3949966430664 81.74500274658203,-44.20399856567383 81.74500274658203,-44.20399856567383 C81.74500274658203,-44.20399856567383 67.14600372314453,-64.3949966430664 67.14600372314453,-64.3949966430664 C67.14600372314453,-64.3949966430664 -81.74500274658203,43.374000549316406 -81.74500274658203,43.374000549316406 C-81.74500274658203,43.374000549316406 -66.58899688720703,64.3949966430664 -66.58899688720703,64.3949966430664z"></path></g><g opacity="1" transform="matrix(1,0,0,1,557.7949829101562,547.8660278320312)"><path stroke-linecap="round" stroke-linejoin="round" fill-opacity="0" stroke="rgb(5,45,35)" stroke-opacity="1" stroke-width="10.105" d=" M67.68699645996094,91.87699890136719 C67.68699645996094,91.87699890136719 -67.68699645996094,-91.87699890136719 -67.68699645996094,-91.87699890136719"></path></g><g opacity="1" transform="matrix(1,0,0,1,446.02801513671875,397.0530090332031)"><path stroke-linecap="round" stroke-linejoin="round" fill-opacity="0" stroke="rgb(5,45,35)" stroke-opacity="1" stroke-width="10.105" d=" M17.441999435424805,23.31999969482422 C17.441999435424805,23.31999969482422 -17.441999435424805,-23.31999969482422 -17.441999435424805,-23.31999969482422"></path></g><g opacity="1" transform="matrix(1,0,0,1,565.6539916992188,586.1430053710938)"><path stroke-linecap="round" stroke-linejoin="round" fill-opacity="0" stroke="rgb(5,45,35)" stroke-opacity="1" stroke-width="10.105" d=" M-224.27499389648438,-177.91799926757812 C-224.27499389648438,-177.91799926757812 39.62200164794922,188.08799743652344 39.62200164794922,188.08799743652344 C39.62200164794922,188.08799743652344 224.2740020751953,284.9339904785156 224.2740020751953,284.9339904785156 C224.2740020751953,284.9339904785156 188.99200439453125,79.81099700927734 188.99200439453125,79.81099700927734 C188.99200439453125,79.81099700927734 -74.73200225830078,-284.9339904785156 -74.73200225830078,-284.9339904785156"></path></g><g opacity="1" transform="matrix(1,0,0,1,736.8790283203125,713.1699829101562)"><path stroke-linecap="round" stroke-linejoin="round" fill-opacity="0" stroke="rgb(5,45,35)" stroke-opacity="1" stroke-width="10.105" d=" M-16.069000244140625,21.26799964904785 C-24.06399917602539,10.185999870300293 -21.559999465942383,-5.2789998054504395 -10.477999687194824,-13.27299976348877 C0.6050000190734863,-21.26799964904785 16.06999969482422,-18.764999389648438 24.06399917602539,-7.683000087738037"></path></g><g opacity="1" transform="matrix(1,0,0,1,696.7009887695312,742.051025390625)"><path stroke-linecap="round" stroke-linejoin="round" fill-opacity="0" stroke="rgb(5,45,35)" stroke-opacity="1" stroke-width="10.105" d=" M-15.979000091552734,21.30500030517578 C-24.023000717163086,10.258000373840332 -21.589000701904297,-5.2179999351501465 -10.541999816894531,-13.26200008392334 C0.5040000081062317,-21.305999755859375 15.979000091552734,-18.871999740600586 24.023000717163086,-7.824999809265137"></path></g><g opacity="1" transform="matrix(1,0,0,1,656.697021484375,771.1810302734375)"><path stroke-linecap="round" stroke-linejoin="round" fill-opacity="0" stroke="rgb(5,45,35)" stroke-opacity="1" stroke-width="10.105" d=" M-15.979000091552734,21.30500030517578 C-24.023000717163086,10.258000373840332 -21.589000701904297,-5.2179999351501465 -10.541999816894531,-13.26200008392334 C0.5040000081062317,-21.305999755859375 15.979000091552734,-18.871999740600586 24.023000717163086,-7.824999809265137"></path></g><g opacity="1" transform="matrix(1,0,0,1,364.85699462890625,282.5979919433594)"><path stroke-linecap="round" stroke-linejoin="round" fill-opacity="0" stroke="rgb(5,45,35)" stroke-opacity="1" stroke-width="10.105" d=" M58.959999084472656,-43.0880012512207 C58.959999084472656,-43.0880012512207 73.34500122070312,-25.024999618530273 73.34500122070312,-25.024999618530273 C73.34500122070312,-25.024999618530273 -48.9739990234375,64.0469970703125 -48.9739990234375,64.0469970703125 C-48.9739990234375,64.0469970703125 -57.698001861572266,51.05400085449219 -57.698001861572266,51.05400085449219 C-73.34400177001953,31.422000885009766 -69.9280014038086,2.7909998893737793 -50.104000091552734,-12.609000205993652 C-50.104000091552734,-12.609000205993652 -2.8589999675750732,-49.31100082397461 -2.8589999675750732,-49.31100082397461 C16.111000061035156,-64.0469970703125 43.30699920654297,-61.310001373291016 58.959999084472656,-43.0880012512207z"></path></g></g></symbol></defs><g clip-path="url(#__lottie_element_2)"><g transform="matrix(1,0,0,1,0,0)" opacity="1" style="display: block;"><g opacity="1" transform="matrix(1,0,0,1,540,540.06201171875)"><path fill="rgb(220,215,255)" fill-opacity="1" d=" M540,0.31200000643730164 C540,298.6839904785156 298.12200927734375,540.56201171875 -0.25,540.56201171875 C-298.62200927734375,540.56201171875 -540.5,298.6839904785156 -540.5,0.31200000643730164 C-540.5,-298.05999755859375 -298.62200927734375,-539.93798828125 -0.25,-539.93798828125 C298.12200927734375,-539.93798828125 540,-298.05999755859375 540,0.31200000643730164z"></path></g></g><g transform="matrix(1.0210775136947632,0,0,1.0210775136947632,-11.381871223449707,-11.381871223449707)" opacity="1" style="display: block;"><g opacity="1" transform="matrix(1,0,0,1,549.0339965820312,500.3789978027344)"><path fill="rgb(218,255,153)" fill-opacity="1" d=" M0,-370.697998046875 C0,-370.697998046875 120.4469985961914,-126.64600372314453 120.4469985961914,-126.64600372314453 C120.4469985961914,-126.64600372314453 389.7760009765625,-87.51000213623047 389.7760009765625,-87.51000213623047 C389.7760009765625,-87.51000213623047 194.88800048828125,102.45800018310547 194.88800048828125,102.45800018310547 C194.88800048828125,102.45800018310547 240.89500427246094,370.697998046875 240.89500427246094,370.697998046875 C240.89500427246094,370.697998046875 0,244.052001953125 0,244.052001953125 C0,244.052001953125 -240.89500427246094,370.697998046875 -240.89500427246094,370.697998046875 C-240.89500427246094,370.697998046875 -194.88800048828125,102.45800018310547 -194.88800048828125,102.45800018310547 C-194.88800048828125,102.45800018310547 -389.7760009765625,-87.51000213623047 -389.7760009765625,-87.51000213623047 C-389.7760009765625,-87.51000213623047 -120.4469985961914,-126.64600372314453 -120.4469985961914,-126.64600372314453 C-120.4469985961914,-126.64600372314453 0,-370.697998046875 0,-370.697998046875z"></path></g></g><g transform="matrix(1.001056432723999,0,0,1.001056432723999,-0.5704736709594727,-0.5704736709594727)" opacity="1" style="display: block;"><g opacity="1" transform="matrix(1,0,0,1,549.0339965820312,500.3789978027344)"><path stroke-linecap="round" stroke-linejoin="round" fill-opacity="0" stroke="rgb(5,45,35)" stroke-opacity="1" stroke-width="10.105" d=" M240.89500427246094,370.697998046875 C240.89500427246094,370.697998046875 0,244.052001953125 0,244.052001953125 C0,244.052001953125 -240.89500427246094,370.697998046875 -240.89500427246094,370.697998046875 C-240.89500427246094,370.697998046875 -194.88800048828125,102.45800018310547 -194.88800048828125,102.45800018310547 C-194.88800048828125,102.45800018310547 -389.7760009765625,-87.51000213623047 -389.7760009765625,-87.51000213623047 C-389.7760009765625,-87.51000213623047 -120.4469985961914,-126.64600372314453 -120.4469985961914,-126.64600372314453 C-120.4469985961914,-126.64600372314453 0,-370.697998046875 0,-370.697998046875 C0,-370.697998046875 0,-370.697998046875 0,-370.697998046875 C0,-370.697998046875 120.4469985961914,-126.64600372314453 120.4469985961914,-126.64600372314453 C120.4469985961914,-126.64600372314453 389.7760009765625,-87.51000213623047 389.7760009765625,-87.51000213623047 C389.7760009765625,-87.51000213623047 194.88800048828125,102.45800018310547 194.88800048828125,102.45800018310547 C194.88800048828125,102.45800018310547 240.89500427246094,370.697998046875 240.89500427246094,370.697998046875 C240.89500427246094,370.697998046875 240.89500427246094,370.697998046875 240.89500427246094,370.697998046875"></path></g></g><g mask="url(#__lottie_element_4)" style="display: block;"><use href="#__lottie_element_19"></use></g><g transform="matrix(1.001056432723999,0,0,1.001056432723999,-0.5704736709594727,-0.5704736709594727)" opacity="1" style="display: block;"><g opacity="1" transform="matrix(1,0,0,1,0,0)"><g opacity="1" transform="matrix(1,0,0,1,364.85699462890625,282.5979919433594)"><path fill="rgb(5,45,35)" fill-opacity="1" d=" M-48.9739990234375,64.0469970703125 C-48.9739990234375,64.0469970703125 -57.69900131225586,51.05400085449219 -57.69900131225586,51.05400085449219 C-73.34400177001953,31.42300033569336 -69.92900085449219,2.7909998893737793 -50.104000091552734,-12.609000205993652 C-50.104000091552734,-12.609000205993652 -2.859999895095825,-49.310001373291016 -2.859999895095825,-49.310001373291016 C16.111000061035156,-64.0469970703125 43.30699920654297,-61.308998107910156 58.959999084472656,-43.08700180053711 C58.959999084472656,-43.08700180053711 73.34500122070312,-25.02400016784668 73.34500122070312,-25.02400016784668"></path></g><g opacity="1" transform="matrix(1,0,0,1,385.21600341796875,312.27398681640625)"><path stroke-linecap="round" stroke-linejoin="round" fill-opacity="0" stroke="rgb(5,45,35)" stroke-opacity="1" stroke-width="10.105" d=" M-66.58899688720703,64.3949966430664 C-66.58899688720703,64.3949966430664 81.74500274658203,-44.20399856567383 81.74500274658203,-44.20399856567383 C81.74500274658203,-44.20399856567383 67.14600372314453,-64.3949966430664 67.14600372314453,-64.3949966430664 C67.14600372314453,-64.3949966430664 -81.74500274658203,43.374000549316406 -81.74500274658203,43.374000549316406 C-81.74500274658203,43.374000549316406 -66.58899688720703,64.3949966430664 -66.58899688720703,64.3949966430664z"></path></g><g opacity="1" transform="matrix(1,0,0,1,364.85699462890625,282.5979919433594)"><path stroke-linecap="round" stroke-linejoin="round" fill-opacity="0" stroke="rgb(5,45,35)" stroke-opacity="1" stroke-width="10.105" d=" M58.959999084472656,-43.0880012512207 C58.959999084472656,-43.0880012512207 73.34500122070312,-25.024999618530273 73.34500122070312,-25.024999618530273 C73.34500122070312,-25.024999618530273 -48.9739990234375,64.0469970703125 -48.9739990234375,64.0469970703125 C-48.9739990234375,64.0469970703125 -57.698001861572266,51.05400085449219 -57.698001861572266,51.05400085449219 C-73.34400177001953,31.422000885009766 -69.9280014038086,2.7909998893737793 -50.104000091552734,-12.609000205993652 C-50.104000091552734,-12.609000205993652 -2.8589999675750732,-49.31100082397461 -2.8589999675750732,-49.31100082397461 C16.111000061035156,-64.0469970703125 43.30699920654297,-61.310001373291016 58.959999084472656,-43.0880012512207z"></path></g></g></g></g></svg>