<svg xmlns="http://www.w3.org/2000/svg" viewBox="0 0 1080 1080" width="1080" height="1080" preserveAspectRatio="xMidYMid slice" style="width: 100%; height: 100%; transform: translate3d(0px, 0px, 0px);"><defs><clipPath id="__lottie_element_48"><rect width="1080" height="1080" x="0" y="0"></rect></clipPath></defs><g clip-path="url(#__lottie_element_48)"><g transform="matrix(1,0,0,1,0,0)" opacity="1" style="display: block;"><g opacity="1" transform="matrix(1,0,0,1,541.8670043945312,538.7739868164062)"><path fill="rgb(219,215,252)" fill-opacity="1" d=" M539.5,0 C539.5,297.9580078125 297.9580078125,539.5 0,539.5 C-297.9580078125,539.5 -539.5,297.9580078125 -539.5,0 C-539.5,-297.9580078125 -297.9580078125,-539.5 0,-539.5 C297.9580078125,-539.5 539.5,-297.9580078125 539.5,0z"></path></g></g><g transform="matrix(0.9645082354545593,-0.2640528380870819,0.2640528380870819,0.9645082354545593,-63.17144775390625,170.61557006835938)" opacity="1" style="display: block;"><g opacity="1" transform="matrix(1,0,0,1,646.9769897460938,568.8380126953125)"><path fill="rgb(226,254,165)" fill-opacity="1" d=" M158.05999755859375,70.33300018310547 C158.05999755859375,70.33300018310547 158.09100341796875,70.36599731445312 158.09100341796875,70.36599731445312 C158.125,68.96700286865234 158.1219940185547,67.57099914550781 158.14599609375,66.1729965209961 C158.14599609375,65.6969985961914 158.16700744628906,65.21700286865234 158.16400146484375,64.74099731445312 C159.14999389648438,-2.687000036239624 148.14300537109375,-69.76699829101562 125.57499694824219,-133.3470001220703 C125.57499694824219,-133.3470001220703 124.61499786376953,-136.0500030517578 124.61499786376953,-136.0500030517578 C113.13999938964844,-168.3820037841797 117.4260025024414,-204.21800231933594 136.20599365234375,-232.9290008544922 C136.20599365234375,-232.9290008544922 139.09800720214844,-237.3489990234375 139.09800720214844,-237.3489990234375 C148.8780059814453,-252.3000030517578 143.54299926757812,-272.4309997558594 127.64299774169922,-280.5780029296875 C90.91200256347656,-299.39898681640625 45.87799835205078,-284.87799072265625 27.05699920654297,-248.1479949951172 C27.05699920654297,-248.1479949951172 -25.823999404907227,-144.94000244140625 -25.823999404907227,-144.94000244140625 C-25.823999404907227,-144.94000244140625 -74.63600158691406,14.99899959564209 -74.63600158691406,14.99899959564209 C-74.63600158691406,14.99899959564209 -99.00499725341797,179.74200439453125 -99.00499725341797,179.74200439453125 C-99.00499725341797,179.74200439453125 -159.14999389648438,256.3599853515625 -159.14999389648438,256.3599853515625 C-159.14999389648438,256.3599853515625 -104.83999633789062,270.82598876953125 -104.83999633789062,270.82598876953125 C8.263999938964844,299.39898681640625 123.11599731445312,230.8719940185547 151.68899536132812,117.76699829101562 C155.6959991455078,101.90599822998047 157.7270050048828,86.0199966430664 158.05999755859375,70.33300018310547z"></path></g><g opacity="1" transform="matrix(1,0,0,1,656.1229858398438,567.010009765625)"><path stroke-linecap="round" stroke-linejoin="round" fill-opacity="0" stroke="rgb(42,65,58)" stroke-opacity="1" stroke-width="10.101" d=" M-34.970001220703125,-143.11199951171875 C-34.970001220703125,-143.11199951171875 17.91200065612793,-246.32000732421875 17.91200065612793,-246.32000732421875 C36.733001708984375,-283.04998779296875 81.76599884033203,-297.5710144042969 118.49800109863281,-278.75 C134.3979949951172,-270.6029968261719 139.7310028076172,-250.4720001220703 129.95199584960938,-235.52099609375 C129.95199584960938,-235.52099609375 127.06099700927734,-231.1009979248047 127.06099700927734,-231.1009979248047 C108.28099822998047,-202.38999938964844 103.99299621582031,-166.5540008544922 115.46900177001953,-134.22300720214844 C115.46900177001953,-134.22300720214844 116.42900085449219,-131.51800537109375 116.42900085449219,-131.51800537109375 C138.99600219726562,-67.93900299072266 150.00399780273438,-0.8600000143051147 149.01800537109375,66.56800079345703 C149.02099609375,67.04499816894531 149,67.5250015258789 148.99899291992188,68.00199890136719 C148.97500610351562,69.4000015258789 148.97900390625,70.7959976196289 148.94500732421875,72.19499969482422 C148.94500732421875,72.19499969482422 148.91400146484375,72.16100311279297 148.91400146484375,72.16100311279297 C148.58099365234375,87.84700012207031 146.5489959716797,103.73500061035156 142.54299926757812,119.59600067138672 C114.72599792480469,229.70899963378906 5.132999897003174,297.57000732421875 -105.00900268554688,274.7179870605469 C-105.00900268554688,274.7179870605469 -150.00399780273438,263.05999755859375 -150.00399780273438,263.05999755859375"></path></g><g opacity="1" transform="matrix(1,0,0,1,596.5059814453125,649.7009887695312)"><path stroke-linecap="round" stroke-linejoin="round" fill-opacity="0" stroke="rgb(42,65,58)" stroke-opacity="1" stroke-width="10.101" d=" M31.05500030517578,78.09300231933594 C31.05500030517578,78.09300231933594 -31.054000854492188,2.865000009536743 -6.210999965667725,-78.09300231933594"></path></g><g opacity="1" transform="matrix(1,0,0,1,580.656982421875,674.489990234375)"><path stroke-linecap="round" stroke-linejoin="round" fill-opacity="0" stroke="rgb(42,65,58)" stroke-opacity="1" stroke-width="10.101" d=" M12.446999549865723,-11.621999740600586 C12.446999549865723,-11.621999740600586 -6.864999771118164,-1.2649999856948853 -12.446999549865723,11.621999740600586"></path></g></g><g transform="matrix(0.9645082354545593,-0.2640528380870819,0.2640528380870819,0.9645082354545593,-57.8903923034668,189.90573120117188)" opacity="1" style="display: block;"><g opacity="1" transform="matrix(1,0,0,1,492.8280029296875,572.2100219726562)"><path fill="rgb(219,215,252)" fill-opacity="1" d=" M69.83100128173828,96.88400268554688 C72.4489974975586,84.9280014038086 76.64600372314453,51.90700149536133 84.2699966430664,30.944000244140625 C84.2699966430664,30.944000244140625 103.63099670410156,-57.47700119018555 103.63099670410156,-57.47700119018555 C103.63099670410156,-57.47700119018555 -76.33399963378906,-96.88400268554688 -76.33399963378906,-96.88400268554688 C-76.33399963378906,-96.88400268554688 -77.57499694824219,-91.21600341796875 -77.57499694824219,-91.21600341796875 C-87.87200164794922,-22.941999435424805 -103.63099670410156,6.1519999504089355 -102.83200073242188,24.128000259399414"></path></g><g opacity="1" transform="matrix(1,0,0,1,465.3399963378906,640.5609741210938)"><path fill="rgb(221,215,236)" fill-opacity="1" d=" M-57.4010009765625,-126.16600036621094 C-57.4010009765625,-126.16600036621094 -97.31900024414062,56.1349983215332 -97.31900024414062,56.1349983215332 C-97.31900024414062,56.1349983215332 -87.29399871826172,94.66500091552734 -87.29399871826172,94.66500091552734 C-84.43399810791016,81.3219985961914 -71.2979965209961,72.8239974975586 -57.95500183105469,75.68599700927734 C-44.61199951171875,78.5459976196289 -36.1150016784668,91.68199920654297 -38.97600173950195,105.0250015258789 C-36.1150016784668,91.68199920654297 -22.979000091552734,83.18399810791016 -9.63700008392334,86.04499816894531 C3.6540000438690186,88.8949966430664 12.119999885559082,101.93900299072266 9.361000061035156,115.22699737548828 C12.444999694824219,102.11699676513672 25.46299934387207,93.8479995727539 38.66600036621094,96.74099731445312 C51.99599838256836,99.66100311279297 60.435001373291016,112.83499908447266 57.513999938964844,126.16500091552734 C57.513999938964844,126.16500091552734 82.73300170898438,95.14700317382812 82.73300170898438,95.14700317382812 C82.73300170898438,95.14700317382812 97.31900024414062,28.533000946044922 97.31900024414062,28.533000946044922"></path></g><g opacity="1" transform="matrix(1,0,0,1,533.031982421875,373.7550048828125)"><path fill="rgb(221,215,236)" fill-opacity="1" d=" M-63.428001403808594,-140.97799682617188 C-63.428001403808594,-140.97799682617188 -116.53800201416016,101.57099914550781 -116.53800201416016,101.57099914550781 C-116.53800201416016,101.57099914550781 63.426998138427734,140.97799682617188 63.426998138427734,140.97799682617188 C63.426998138427734,140.97799682617188 116.53800201416016,-101.57099914550781 116.53800201416016,-101.57099914550781 C116.53800201416016,-101.57099914550781 -63.428001403808594,-140.97799682617188 -63.428001403808594,-140.97799682617188z"></path></g><g opacity="1" transform="matrix(1,0,0,1,571.6129760742188,184.05999755859375)"><path fill="rgb(17,44,36)" fill-opacity="1" d=" M-78.22200012207031,12.515999794006348 C-78.22200012207031,12.515999794006348 -75.02799987792969,-2.0759999752044678 -75.02799987792969,-2.0759999752044678 C-69.38300323486328,-27.86400032043457 -43.9010009765625,-44.194000244140625 -18.113000869750977,-38.547000885009766 C-18.113000869750977,-38.547000885009766 36.11000061035156,-26.673999786376953 36.11000061035156,-26.673999786376953 C61.89500045776367,-21.027999877929688 78.22200012207031,4.452000141143799 72.5780029296875,30.23699951171875 C72.5780029296875,30.23699951171875 69.52300262451172,44.19300079345703 69.52300262451172,44.19300079345703"></path></g><g opacity="1" transform="matrix(1,0,0,1,435.8349914550781,849.10498046875)"><path fill="rgb(17,44,36)" fill-opacity="1" d=" M4.4730000495910645,-46.20600128173828 C4.4730000495910645,-46.20600128173828 4.4730000495910645,-46.20600128173828 4.4730000495910645,-46.20600128173828 C-17.39900016784668,-50.59600067138672 -36.375,-30.683000564575195 -30.937000274658203,-9.048999786376953 C-30.937000274658203,-9.048999786376953 -15.944000244140625,50.59600067138672 -15.944000244140625,50.59600067138672 C-15.944000244140625,50.59600067138672 22.277999877929688,2.4149999618530273 22.277999877929688,2.4149999618530273 C36.374000549316406,-15.354000091552734 26.711000442504883,-41.742000579833984 4.4730000495910645,-46.20600128173828z"></path></g><g opacity="1" transform="matrix(1,0,0,1,565.3300170898438,224.99000549316406)"><path stroke-linecap="round" stroke-linejoin="round" fill-opacity="0" stroke="rgb(17,44,36)" stroke-opacity="1" stroke-width="10.091" d=" M-92.44999694824219,-6.374000072479248 C-92.44999694824219,-6.374000072479248 87.1520004272461,31.652000427246094 87.1520004272461,31.652000427246094 C87.1520004272461,31.652000427246094 92.44999694824219,7.3420000076293945 92.44999694824219,7.3420000076293945 C92.44999694824219,7.3420000076293945 -86.90599822998047,-31.652000427246094 -86.90599822998047,-31.652000427246094 C-86.90599822998047,-31.652000427246094 -92.44999694824219,-6.374000072479248 -92.44999694824219,-6.374000072479248z"></path></g><g opacity="1" transform="matrix(1,0,0,1,450.5,816.9429931640625)"><path stroke-linecap="round" stroke-linejoin="round" fill-opacity="0" stroke="rgb(17,44,36)" stroke-opacity="1" stroke-width="10.091" d=" M-72.74099731445312,-81.64600372314453 C-72.74099731445312,-81.64600372314453 -31.541000366210938,81.64600372314453 -31.541000366210938,81.64600372314453 C-31.541000366210938,81.64600372314453 72.74099731445312,-49.90999984741211 72.74099731445312,-49.90999984741211"></path></g><g opacity="1" transform="matrix(1,0,0,1,516.9710083007812,448.7309875488281)"><path stroke-linecap="round" stroke-linejoin="round" fill-opacity="0" stroke="rgb(17,44,36)" stroke-opacity="1" stroke-width="10.091" d=" M-11.114999771118164,49.696998596191406 C-11.114999771118164,49.696998596191406 11.114999771118164,-49.696998596191406 11.114999771118164,-49.696998596191406"></path></g><g opacity="1" transform="matrix(1,0,0,1,542.573974609375,326.9830017089844)"><path stroke-linecap="round" stroke-linejoin="round" fill-opacity="0" stroke="rgb(17,44,36)" stroke-opacity="1" stroke-width="10.091" d=" M-5.732999801635742,28.510000228881836 C-5.732999801635742,28.510000228881836 5.732999801635742,-28.510000228881836 5.732999801635742,-28.510000228881836"></path></g><g opacity="1" transform="matrix(1,0,0,1,482.239990234375,499.75201416015625)"><path stroke-linecap="round" stroke-linejoin="round" fill-opacity="0" stroke="rgb(17,44,36)" stroke-opacity="1" stroke-width="10.091" d=" M114.21900177001953,14.980999946594238 C114.21900177001953,14.980999946594238 94.85700225830078,103.40299987792969 94.85700225830078,103.40299987792969 C94.85700225830078,103.40299987792969 80.41899871826172,169.34300231933594 80.41899871826172,169.34300231933594 C80.41899871826172,169.34300231933594 65.83200073242188,235.95599365234375 65.83200073242188,235.95599365234375 C65.83200073242188,235.95599365234375 40.6150016784668,266.9750061035156 40.6150016784668,266.9750061035156 C43.53499984741211,253.64500427246094 35.095001220703125,240.4709930419922 21.764999389648438,237.55099487304688 C8.435999870300293,234.6300048828125 -4.73799991607666,243.06900024414062 -7.658999919891357,256.39898681640625 C-7.658999919891357,256.39898681640625 -7.558000087738037,256.19500732421875 -7.558000087738037,256.19500732421875 C-4.697000026702881,242.8520050048828 -13.192999839782715,229.71600341796875 -26.535999298095703,226.85499572753906 C-39.87900161743164,223.99400329589844 -53.01599884033203,232.49200439453125 -55.87699890136719,245.83399963378906 C-53.01599884033203,232.49200439453125 -61.51300048828125,219.3560028076172 -74.85600280761719,216.4949951171875 C-88.1989974975586,213.63400268554688 -101.33399963378906,222.13099670410156 -104.19499969482422,235.4739990234375 C-104.19499969482422,235.4739990234375 -114.22000122070312,196.94500732421875 -114.22000122070312,196.94500732421875 C-114.22000122070312,196.94500732421875 -74.302001953125,14.644000053405762 -74.302001953125,14.644000053405762 C-74.302001953125,14.644000053405762 -65.74700164794922,-24.426000595092773 -65.74700164794922,-24.426000595092773 C-65.74700164794922,-24.426000595092773 -12.63599967956543,-266.9750061035156 -12.63599967956543,-266.9750061035156"></path></g><g opacity="1" transform="matrix(1,0,0,1,623.0139770507812,393.4590148925781)"><path stroke-linecap="round" stroke-linejoin="round" fill-opacity="0" stroke="rgb(17,44,36)" stroke-opacity="1" stroke-width="10.091" d=" M26.55500030517578,-121.2750015258789 C26.55500030517578,-121.2750015258789 -26.555999755859375,121.2750015258789 -26.555999755859375,121.2750015258789"></path></g><g opacity="1" transform="matrix(1,0,0,1,429.2409973144531,866.02001953125)"><path stroke-linecap="round" stroke-linejoin="round" fill-opacity="0" stroke="rgb(17,44,36)" stroke-opacity="1" stroke-width="10.091" d=" M-5.869999885559082,24.95199966430664 C-5.869999885559082,24.95199966430664 5.869999885559082,-24.95199966430664 5.869999885559082,-24.95199966430664"></path></g><g opacity="1" transform="matrix(1,0,0,1,570.3770141601562,184.93800354003906)"><path stroke-linecap="round" stroke-linejoin="round" fill-opacity="0" stroke="rgb(17,44,36)" stroke-opacity="1" stroke-width="10.091" d=" M5.869999885559082,-24.95199966430664 C5.869999885559082,-24.95199966430664 -5.869999885559082,24.95199966430664 -5.869999885559082,24.95199966430664"></path></g></g><g transform="matrix(1,0,0,1,540,550)" opacity="1" style="display: block;"><g opacity="1" transform="matrix(1,0,0,1,0,0)"><path fill="rgb(98,98,96)" fill-opacity="1" d=" M56,398 C56,398 53.16699981689453,398 48.09700012207031,398"></path><path stroke-linecap="round" stroke-linejoin="round" fill-opacity="0" stroke="rgb(17,43,35)" stroke-opacity="1" stroke-width="10" d=" M56,398 C56,398 53.16699981689453,398 48.09700012207031,398"></path></g></g><g transform="matrix(0.9645082354545593,-0.2640528380870819,0.2640528380870819,0.9645082354545593,-63.17144775390625,170.61557006835938)" opacity="1" style="display: block;"><g opacity="1" transform="matrix(1,0,0,1,413.2659912109375,754.3380126953125)"><path fill="rgb(226,254,165)" fill-opacity="1" d=" M88.5250015258789,-39.82699966430664 C108.62000274658203,-25.77400016784668 118.06600189208984,0.2630000114440918 110.02300262451172,24.76300048828125 C100.18900299072266,54.720001220703125 67.93299865722656,71.03299713134766 37.97600173950195,61.19900131225586 C37.97600173950195,61.19900131225586 -58.32600021362305,29.586000442504883 -58.32600021362305,29.586000442504883 C-94.62999725341797,17.66900062561035 -118.06700134277344,-17.54199981689453 -115.05000305175781,-55.632999420166016 C-115.05000305175781,-55.632999420166016 -114.40599822998047,-63.763999938964844 -114.40599822998047,-63.763999938964844 C-114.21099853515625,-66.22599792480469 -113.91200256347656,-68.6510009765625 -113.51399993896484,-71.03299713134766"></path></g><g opacity="1" transform="matrix(1,0,0,1,410.65399169921875,754.3380126953125)"><path stroke-linecap="round" stroke-linejoin="round" fill-opacity="0" stroke="rgb(17,44,36)" stroke-opacity="1" stroke-width="10.101" d=" M115.4530029296875,9.232000350952148 C115.24500274658203,14.392999649047852 114.3270034790039,19.61199951171875 112.63600158691406,24.76300048828125 C102.802001953125,54.720001220703125 70.5459976196289,71.03299713134766 40.5890007019043,61.19900131225586 C40.5890007019043,61.19900131225586 -55.7130012512207,29.586000442504883 -55.7130012512207,29.586000442504883 C-92.01799774169922,17.66900062561035 -115.4540023803711,-17.54199981689453 -112.43699645996094,-55.632999420166016 C-112.43699645996094,-55.632999420166016 -111.79299926757812,-63.763999938964844 -111.79299926757812,-63.763999938964844 C-111.5979995727539,-66.22599792480469 -111.29900360107422,-68.6510009765625 -110.9010009765625,-71.03299713134766"></path></g></g><g transform="matrix(0.9645082354545593,-0.2640528380870819,0.2640528380870819,0.9645082354545593,-63.17144775390625,170.61557006835938)" opacity="1" style="display: block;"><g opacity="1" transform="matrix(1,0,0,1,428.7539978027344,649.3560180664062)"><path fill="rgb(226,254,165)" fill-opacity="1" d=" M-70.44000244140625,-53.46900177001953 C-70.44000244140625,-53.46900177001953 104.35199737548828,3.9100000858306885 104.35199737548828,3.9100000858306885 C134.3090057373047,13.744000434875488 150.6230010986328,46.000999450683594 140.78900146484375,75.95700073242188 C140.78900146484375,75.95700073242188 140.78900146484375,75.95800018310547 140.78900146484375,75.95800018310547 C130.9550018310547,105.91400146484375 98.6969985961914,122.22699737548828 68.74099731445312,112.39299774169922 C68.74099731445312,112.39299774169922 -90.88200378417969,59.994998931884766 -90.88200378417969,59.994998931884766 C-127.18599700927734,48.07699966430664 -150.6230010986328,12.866999626159668 -147.6060028076172,-25.224000930786133 C-147.6060028076172,-25.224000930786133 -146.96099853515625,-33.35499954223633 -146.96099853515625,-33.35499954223633 C-142.7259979248047,-86.8280029296875 -89.5459976196289,-122.22599792480469 -38.582000732421875,-105.49600219726562"></path></g><g opacity="1" transform="matrix(1,0,0,1,427.1260070800781,671.5960083007812)"><path stroke-linecap="round" stroke-linejoin="round" fill-opacity="0" stroke="rgb(17,44,36)" stroke-opacity="1" stroke-width="10.101" d=" M130.79200744628906,-2.0889999866485596 C143.8719940185547,12.607999801635742 148.9949951171875,33.678001403808594 142.41600036621094,53.71799850463867 C132.58200073242188,83.67500305175781 100.32599639892578,99.98799896240234 70.36900329589844,90.15399932861328 C70.36900329589844,90.15399932861328 -89.25299835205078,37.755001068115234 -89.25299835205078,37.755001068115234 C-125.55799865722656,25.836999893188477 -148.9949951171875,-9.373000144958496 -145.9770050048828,-47.4640007019043 C-145.9770050048828,-47.4640007019043 -145.33299255371094,-55.595001220703125 -145.33299255371094,-55.595001220703125 C-143.98800659179688,-72.58000183105469 -137.70399475097656,-87.74099731445312 -128.1219940185547,-99.98699951171875"></path></g></g><g transform="matrix(0.9645082354545593,-0.2640528380870819,0.2640528380870819,0.9645082354545593,-63.17144775390625,170.61557006835938)" opacity="1" style="display: block;"><g opacity="1" transform="matrix(1,0,0,1,442.06201171875,562.39501953125)"><path fill="rgb(226,254,165)" fill-opacity="1" d=" M-70.44000244140625,-53.46900177001953 C-70.44000244140625,-53.46900177001953 104.35199737548828,3.9089999198913574 104.35199737548828,3.9089999198913574 C134.3090057373047,13.743000030517578 150.6230010986328,46 140.78900146484375,75.95600128173828 C140.78900146484375,75.95600128173828 140.78900146484375,75.95800018310547 140.78900146484375,75.95800018310547 C130.9550018310547,105.91400146484375 98.6969985961914,122.22599792480469 68.74099731445312,112.39199829101562 C68.74099731445312,112.39199829101562 -90.88200378417969,59.994998931884766 -90.88200378417969,59.994998931884766 C-127.18599700927734,48.07699966430664 -150.6230010986328,12.866999626159668 -147.6060028076172,-25.224000930786133 C-147.6060028076172,-25.224000930786133 -146.96099853515625,-33.35599899291992 -146.96099853515625,-33.35599899291992 C-142.7259979248047,-86.8290023803711 -89.5459976196289,-122.22699737548828 -38.582000732421875,-105.49700164794922"></path></g><g opacity="1" transform="matrix(1,0,0,1,440.3389892578125,582.489013671875)"><path stroke-linecap="round" stroke-linejoin="round" fill-opacity="0" stroke="rgb(17,44,36)" stroke-opacity="1" stroke-width="10.101" d=" M132.00100708007812,1.3480000495910645 C144.2530059814453,15.972000122070312 148.89999389648438,36.40299987792969 142.51199340820312,55.86399841308594 C132.67799377441406,85.81999969482422 100.4209976196289,102.13300323486328 70.46499633789062,92.29900360107422 C70.46499633789062,92.29900360107422 -89.15899658203125,39.9010009765625 -89.15899658203125,39.9010009765625 C-125.46299743652344,27.982999801635742 -148.89999389648438,-7.2270002365112305 -145.8820037841797,-45.31800079345703 C-145.8820037841797,-45.31800079345703 -145.23800659179688,-53.44900131225586 -145.23800659179688,-53.44900131225586 C-143.7310028076172,-72.47799682617188 -136.02499389648438,-89.21700286865234 -124.4280014038086,-102.13300323486328"></path></g></g><g transform="matrix(0.9645082354545593,-0.2640528380870819,0.2640528380870819,0.9645082354545593,-63.17144775390625,170.61557006835938)" opacity="1" style="display: block;"><g opacity="1" transform="matrix(1,0,0,1,460.6499938964844,472.73199462890625)"><path fill="rgb(226,254,165)" fill-opacity="1" d=" M104.35299682617188,3.9100000858306885 C104.35299682617188,3.9100000858306885 -38.26499938964844,-42.90800094604492 -38.26499938964844,-42.90800094604492 C-38.26499938964844,-42.90800094604492 -25.732999801635742,-101.27899932861328 -25.732999801635742,-101.27899932861328 C-25.732999801635742,-101.27899932861328 -38.58000183105469,-105.49600219726562 -38.58000183105469,-105.49600219726562 C-38.58000183105469,-105.49600219726562 -38.58100128173828,-105.49600219726562 -38.58100128173828,-105.49600219726562 C-89.54499816894531,-122.22599792480469 -142.72500610351562,-86.8280029296875 -146.9600067138672,-33.35599899291992 C-146.9600067138672,-33.35599899291992 -147.60499572753906,-25.225000381469727 -147.60499572753906,-25.225000381469727 C-150.6219940185547,12.866999626159668 -127.18499755859375,48.07600021362305 -90.88099670410156,59.99399948120117 C-90.88099670410156,59.99399948120117 68.74199676513672,112.39399719238281 68.74199676513672,112.39399719238281 C98.697998046875,122.22699737548828 130.9550018310547,105.91400146484375 140.78900146484375,75.95700073242188 C150.6219940185547,46.000999450683594 134.3090057373047,13.744000434875488 104.35299682617188,3.9100000858306885z"></path></g><g opacity="1" transform="matrix(1,0,0,1,460.6510009765625,472.239990234375)"><path stroke-linecap="round" stroke-linejoin="round" fill-opacity="0" stroke="rgb(17,44,36)" stroke-opacity="1" stroke-width="10.101" d=" M-70.43900299072266,-52.97600173950195 C-70.43900299072266,-52.97600173950195 104.35299682617188,4.4019999504089355 104.35299682617188,4.4019999504089355 C134.30999755859375,14.236000061035156 150.6230010986328,46.49300003051758 140.78900146484375,76.4489974975586 C140.78900146484375,76.4489974975586 140.78900146484375,76.44999694824219 140.78900146484375,76.44999694824219 C130.9550018310547,106.40599822998047 98.697998046875,122.71900177001953 68.74199676513672,112.88500213623047 C68.74199676513672,112.88500213623047 -90.88099670410156,60.48699951171875 -90.88099670410156,60.48699951171875 C-127.18499755859375,48.569000244140625 -150.6219940185547,13.359000205993652 -147.60499572753906,-24.73200035095215 C-147.60499572753906,-24.73200035095215 -146.9600067138672,-32.862998962402344 -146.9600067138672,-32.862998962402344 C-142.72500610351562,-86.33599853515625 -92.5469970703125,-122.71900177001953 -41.58300018310547,-105.98899841308594 C-41.58300018310547,-105.98899841308594 -23.15999984741211,-99.94200134277344 -23.15999984741211,-99.94200134277344"></path></g></g></g></svg>