<svg xmlns="http://www.w3.org/2000/svg" xmlns:xlink="http://www.w3.org/1999/xlink" viewBox="0 0 196 37"><path d="M 35.477 11.321 C 33.7 7.093 30.42 3.678 26.272 1.737 C 22.123 -0.203 17.403 -0.53 13.027 0.819 C 8.651 2.169 4.933 5.1 2.593 9.042 C 0.252 12.984 -0.542 17.657 0.364 22.153 C 1.271 26.649 3.812 30.647 7.494 33.372 C 11.178 36.096 15.74 37.352 20.296 36.896 C 24.852 36.441 29.076 34.305 32.148 30.904 C 35.22 27.503 36.922 23.08 36.922 18.494 C 36.925 16.03 36.434 13.59 35.477 11.321 Z M 2.795 21.115 L 2.76 20.885 C 2.656 20.187 2.598 19.483 2.587 18.777 L 2.581 18.415 L 2.94 18.463 C 7.826 19.116 12.585 20.503 17.058 22.579 L 17.239 22.661 L 17.239 25.637 L 16.788 25.415 C 12.453 23.277 7.808 21.836 3.025 21.147 Z M 4.866 26.518 L 4.728 26.49 L 4.659 26.366 C 4.238 25.627 3.878 24.857 3.581 24.06 L 3.392 23.553 L 3.926 23.644 C 8.515 24.429 12.952 25.934 17.072 28.104 L 17.239 28.192 L 17.239 31.263 L 16.773 30.999 C 13.059 28.897 9.042 27.385 4.866 26.518 Z M 16.843 34.341 C 13.457 33.992 10.272 32.56 7.761 30.256 L 6.739 29.321 L 8.062 29.727 C 11.211 30.692 14.227 32.048 17.04 33.764 L 18.217 34.482 Z M 18.672 20.65 L 18.608 20.681 L 18.364 20.681 L 18.3 20.65 L 18.291 20.646 C 13.49 18.351 8.357 16.828 3.082 16.133 L 2.76 16.09 L 2.816 15.771 C 3.456 12.072 5.379 8.718 8.246 6.301 C 11.113 3.884 14.74 2.559 18.487 2.559 C 26.223 2.559 32.837 8.135 34.158 15.771 L 34.214 16.09 L 33.891 16.133 C 28.618 16.828 23.486 18.35 18.685 20.644 Z M 29.209 30.256 C 26.698 32.56 23.514 33.992 20.127 34.341 L 18.757 34.482 L 19.934 33.764 C 22.746 32.048 25.761 30.692 28.91 29.727 L 30.232 29.32 Z M 33.389 24.059 C 33.092 24.855 32.732 25.627 32.312 26.366 L 32.243 26.488 L 32.105 26.518 C 27.928 27.385 23.911 28.897 20.197 30.999 L 19.732 31.263 L 19.732 28.192 L 19.898 28.103 C 24.019 25.932 28.456 24.427 33.044 23.643 L 33.579 23.552 Z M 34.384 18.777 C 34.371 19.483 34.314 20.187 34.209 20.885 L 34.174 21.115 L 33.945 21.148 C 29.162 21.837 24.517 23.278 20.181 25.418 L 19.732 25.64 L 19.732 22.661 L 19.91 22.577 C 24.383 20.502 29.144 19.114 34.032 18.463 L 34.391 18.415 Z M 64.452 22.14 C 64.016 22.14 63.709 22.496 63.338 23.564 C 62.53 26.137 61.675 27.205 57.749 27.205 C 55.002 27.205 54.502 26.93 54.502 25.409 L 54.502 18.208 C 54.502 15.198 54.518 12.09 54.583 11.508 C 54.777 9.275 56.813 9.518 56.813 8.304 C 56.813 7.851 56.57 7.479 55.779 7.479 C 55.035 7.479 53.388 7.56 52.467 7.56 C 51.546 7.56 50.4 7.479 49.624 7.479 C 48.785 7.479 48.558 7.867 48.558 8.304 C 48.558 9.404 50.141 9.227 50.319 11.427 C 50.367 12.058 50.367 16.297 50.367 18.208 C 50.367 22.56 50.319 25.748 50.205 26.412 C 49.931 27.998 48.461 27.852 48.461 28.887 C 48.461 29.389 48.865 29.648 49.608 29.648 C 50.48 29.648 52.242 29.567 56.781 29.567 C 60.173 29.567 62.209 29.648 63.355 29.648 C 64.324 29.648 64.728 29.325 64.777 28.483 C 64.907 26.346 65.165 24.308 65.165 23.417 C 65.164 22.69 64.969 22.14 64.452 22.14 Z M 82.682 26.735 C 82.439 26.735 82.278 26.864 81.89 26.864 C 81.18 26.864 80.953 26.185 80.953 25.473 C 80.953 24.001 81.132 21.508 81.132 19.405 C 81.132 15.213 78.434 12.899 74.266 12.899 C 70.309 12.899 68.015 14.922 68.015 16.783 C 68.015 18.208 69.016 18.854 69.921 18.854 C 70.81 18.854 71.132 18.337 71.326 17.544 C 71.682 16.056 72.489 14.728 74.218 14.728 C 76.35 14.728 77.222 16.411 77.222 18.499 C 77.222 19.517 77.061 19.776 76.883 19.906 C 76.495 20.181 73.959 20.278 71.859 20.877 C 69 21.735 67.158 23.385 67.158 25.926 C 67.158 28.515 69.291 29.955 72.021 29.955 C 73.862 29.955 75.607 29.178 76.657 28.159 C 76.786 28.03 76.915 27.835 77.028 27.835 C 77.142 27.835 77.239 27.965 77.303 28.11 C 77.788 29.292 78.692 29.81 80.066 29.81 C 81.681 29.81 82.973 28.677 82.973 27.285 C 82.973 26.913 82.811 26.735 82.682 26.735 Z M 73.507 27.366 C 72.117 27.366 71.116 26.589 71.116 25.246 C 71.116 24.098 71.876 22.965 73.587 22.399 C 74.508 22.108 75.591 21.978 76.931 21.978 C 77.142 21.978 77.239 22.269 77.239 23.24 C 77.239 25.716 75.704 27.366 73.507 27.366 Z M 101.343 27.739 C 100.842 27.366 100.583 26.719 100.583 26.089 C 100.583 25.021 101.035 22.253 101.035 19.276 C 101.035 15.117 99.161 12.917 95.736 12.917 C 92.585 12.917 90.6 15.555 90.26 15.555 C 89.985 15.555 89.92 14.73 89.759 13.969 C 89.597 13.273 89.307 13.062 88.806 13.062 C 88.273 13.062 87.756 13.419 86.415 14.001 C 85.365 14.453 84.525 14.583 84.525 15.296 C 84.525 15.684 84.816 15.894 85.155 16.057 C 85.72 16.268 86.254 16.591 86.254 17.432 L 86.254 25.507 C 86.254 26.332 86.124 27.027 85.333 27.74 C 85.026 27.999 84.461 28.274 84.461 28.89 C 84.461 29.294 84.688 29.651 85.462 29.651 C 86.512 29.651 87.272 29.569 88.225 29.569 C 89.048 29.569 89.759 29.651 90.632 29.651 C 91.504 29.651 91.762 29.31 91.762 28.842 C 91.762 28.21 91.229 28.114 90.76 27.692 C 90.274 27.271 90.081 26.819 90.081 25.701 L 90.081 19.018 C 90.081 17.384 92.003 15.652 93.764 15.652 C 95.815 15.652 97.043 17.173 97.043 20.361 C 97.043 23.533 96.64 26.559 96.333 27.513 C 96.22 27.82 95.961 28.37 95.961 28.888 C 95.961 29.293 96.172 29.649 96.801 29.649 C 97.608 29.649 98.06 29.568 99.046 29.568 C 99.935 29.568 100.5 29.649 101.227 29.649 C 102.099 29.649 102.438 29.326 102.438 28.84 C 102.441 28.224 101.94 28.127 101.343 27.739 Z M 121.317 26.735 C 121.076 26.735 120.929 26.864 120.525 26.864 C 119.815 26.864 119.54 26.185 119.54 25.473 L 119.54 12.333 C 119.54 8.547 119.686 8.125 119.686 6.766 C 119.686 6.086 119.347 5.779 118.765 5.779 C 118.136 5.779 117.327 6.329 115.809 6.929 C 114.758 7.349 113.935 7.495 113.935 8.175 C 113.935 8.563 114.291 8.757 114.629 8.934 C 115.194 9.145 115.729 9.582 115.729 10.359 L 115.729 13.725 C 115.729 14.728 115.631 14.938 115.47 14.938 C 115.194 14.938 114.08 12.915 111.092 12.915 C 107.36 12.915 104.21 15.974 104.21 21.865 C 104.21 27.301 107.295 29.891 110.575 29.891 C 112.755 29.891 114.096 28.936 114.824 28.256 C 115.194 27.916 115.389 27.657 115.534 27.657 C 115.695 27.657 115.793 27.868 115.922 28.094 C 116.52 29.357 117.392 29.81 118.717 29.81 C 120.316 29.81 121.625 28.677 121.625 27.285 C 121.625 26.913 121.446 26.735 121.317 26.735 Z M 112.174 27.107 C 109.751 27.107 108.313 24.906 108.313 21.104 C 108.313 17.01 110.026 15.181 112.061 15.181 C 113.822 15.181 115.777 16.654 115.777 21.298 C 115.777 25.553 114.209 27.107 112.174 27.107 Z M 133.705 12.915 C 130.28 12.915 128.875 15.634 128.519 15.634 C 128.39 15.634 128.294 15.424 128.294 14.809 L 128.294 12.172 C 128.294 9.113 128.551 7.657 128.551 6.766 C 128.551 6.07 128.181 5.779 127.631 5.779 C 126.953 5.779 126.339 6.313 124.691 6.929 C 123.512 7.381 122.834 7.543 122.834 8.175 C 122.834 8.579 123.156 8.757 123.48 8.934 C 124.061 9.161 124.578 9.518 124.578 10.295 L 124.578 24.664 C 124.578 27.965 124.336 28.548 124.336 29.341 C 124.336 29.794 124.578 30.069 124.998 30.069 C 125.499 30.069 125.887 29.405 126.452 28.774 C 126.856 28.321 127.276 28.224 127.793 28.224 C 128.487 28.224 129.925 29.891 132.412 29.891 C 136.613 29.891 139.907 26.751 139.907 20.942 C 139.907 16.088 137.484 12.915 133.705 12.915 Z M 132.008 27.641 C 130.054 27.641 128.342 26.217 128.342 21.395 C 128.342 17.381 130.248 15.586 132.153 15.586 C 134.222 15.586 135.805 17.415 135.805 21.54 C 135.805 25.748 134.027 27.641 132.008 27.641 Z M 149.812 12.915 C 145.193 12.915 141.833 16.443 141.833 21.524 C 141.833 26.38 145.03 29.891 150.022 29.891 C 154.48 29.891 158.163 27.205 158.163 21.816 C 158.163 16.136 154.222 12.915 149.812 12.915 Z M 150.572 27.447 C 149.247 27.447 147.793 26.719 146.888 24.906 C 146.178 23.451 145.967 21.606 145.967 20.197 C 145.967 16.654 147.566 15.036 149.456 15.036 C 150.781 15.036 152.122 15.926 153.059 17.738 C 153.754 19.129 154.19 21.088 154.19 22.787 C 154.19 26.087 152.461 27.447 150.572 27.447 Z M 167.985 12.915 C 163.365 12.915 160.005 16.443 160.005 21.524 C 160.005 26.38 163.203 29.891 168.194 29.891 C 172.654 29.891 176.336 27.205 176.336 21.816 C 176.336 16.136 172.395 12.915 167.985 12.915 Z M 168.743 27.447 C 167.42 27.447 165.966 26.719 165.061 24.906 C 164.351 23.451 164.14 21.606 164.14 20.197 C 164.14 16.654 165.739 15.036 167.629 15.036 C 168.954 15.036 170.295 15.926 171.232 17.738 C 171.926 19.129 172.363 21.088 172.363 22.787 C 172.363 26.087 170.634 27.447 168.743 27.447 Z M 195.031 27.674 C 192.835 26.201 192.091 22.124 187.584 20.408 C 187.471 20.376 187.391 20.311 187.391 20.214 C 187.391 20.133 187.439 20.085 187.584 19.971 C 189.684 18.337 191.913 16.315 193.06 15.538 C 193.9 14.971 194.805 14.599 194.805 13.951 C 194.805 13.272 194.207 13.158 193.722 13.158 C 192.979 13.158 191.962 13.256 191.089 13.256 C 190.2 13.256 189.426 13.174 188.585 13.174 C 188.133 13.174 187.648 13.368 187.648 13.984 C 187.648 14.631 188.73 15.181 188.73 15.779 C 188.73 16.863 184.465 20.456 183.9 20.456 C 183.771 20.456 183.642 20.375 183.642 18.579 C 183.642 10.132 183.852 8.125 183.852 6.766 C 183.852 6.086 183.514 5.779 182.931 5.779 C 182.301 5.779 181.525 6.329 180.007 6.929 C 178.957 7.349 178.133 7.495 178.133 8.175 C 178.133 8.563 178.456 8.757 178.796 8.935 C 179.361 9.146 179.878 9.518 179.878 10.263 L 179.878 25.507 C 179.878 26.332 179.749 27.027 178.957 27.74 C 178.651 27.999 178.084 28.274 178.084 28.89 C 178.084 29.294 178.311 29.651 179.086 29.651 C 180.121 29.651 180.879 29.569 181.849 29.569 C 182.641 29.569 183.707 29.651 184.433 29.651 C 185.305 29.651 185.563 29.262 185.563 28.841 C 185.563 28.243 184.966 28.13 184.579 27.789 C 183.868 27.191 183.594 26.592 183.594 24.601 C 183.594 23.34 183.723 22.708 184.531 22.708 C 184.982 22.708 186.243 23.178 187.519 24.537 C 188.503 25.621 189.166 26.753 189.166 27.514 C 189.166 28.097 188.585 28.356 188.585 28.874 C 188.585 29.392 189.005 29.683 189.619 29.683 C 190.168 29.683 191.445 29.585 192.398 29.585 C 193.271 29.585 194.562 29.651 195.192 29.651 C 195.839 29.651 195.952 29.084 195.952 28.841 C 195.952 28.192 195.16 27.787 195.031 27.674 Z" fill="rgb(255,255,255)"/></svg>