<svg xmlns="http://www.w3.org/2000/svg" xmlns:xlink="http://www.w3.org/1999/xlink" viewBox="0 0 165 53"><path d="M 0.332 30.173 L 0.457 11.329 C 0.478 7.917 2.848 4.992 6.117 4.341 L 24.181 0.733 C 28.521 -0.134 32.551 3.289 32.522 7.816 L 32.397 26.664 C 32.374 30.074 30.005 32.997 26.736 33.649 L 8.671 37.258 C 4.331 38.124 0.302 34.703 0.332 30.173 Z" fill="rgba(255,255,255,0.2)"/><path d="M 9.184 37.691 L 9.309 18.843 C 9.329 15.435 11.699 12.512 14.969 11.859 L 33.033 8.253 C 37.373 7.386 41.403 10.807 41.372 15.336 L 41.248 34.184 C 41.226 37.594 38.857 40.517 35.588 41.169 L 17.523 44.778 C 13.183 45.643 9.154 42.222 9.184 37.695 Z" fill="rgba(255,255,255,0.5)"/><path d="M 18.034 45.211 L 18.159 26.363 C 18.18 22.951 20.55 20.03 23.819 19.377 L 41.883 15.769 C 46.223 14.903 50.253 18.325 50.223 22.852 L 50.098 41.7 C 50.076 45.112 47.707 48.035 44.438 48.686 L 26.374 52.294 C 22.033 53.161 18.004 49.738 18.034 45.211 Z" fill="rgba(255,255,255,0.8)"/><path d="M 63.202 37.279 L 63.202 13.591 L 68.241 13.591 L 68.241 32.916 L 77.58 32.916 L 77.58 37.281 L 63.202 37.281 Z M 96.66 19.885 L 96.66 37.279 L 92.461 37.279 L 92.058 34.842 C 90.692 36.579 88.899 37.448 86.684 37.448 C 85.161 37.448 83.795 37.088 82.586 36.365 C 81.377 35.644 80.431 34.606 79.747 33.252 C 79.064 31.898 78.723 30.331 78.723 28.549 C 78.723 26.79 79.064 25.232 79.747 23.878 C 80.431 22.523 81.381 21.48 82.602 20.748 C 83.822 20.016 85.195 19.649 86.718 19.649 C 87.882 19.649 88.912 19.876 89.808 20.325 C 90.704 20.777 91.442 21.397 92.025 22.187 L 92.495 19.886 L 96.66 19.886 Z M 90.849 32.221 C 91.609 31.308 91.992 30.106 91.992 28.617 C 91.992 27.106 91.611 25.887 90.849 24.962 C 90.087 24.038 89.069 23.575 87.792 23.575 C 86.516 23.575 85.491 24.038 84.718 24.962 C 83.945 25.887 83.559 27.106 83.559 28.617 C 83.559 30.106 83.945 31.308 84.718 32.221 C 85.491 33.135 86.516 33.592 87.792 33.592 C 89.069 33.592 90.088 33.135 90.849 32.221 Z M 103.313 19.885 L 107.512 32.372 L 111.609 19.885 L 116.682 19.885 L 109.022 39.75 C 108.619 40.81 108.239 41.639 107.88 42.238 C 107.521 42.835 107.067 43.286 106.519 43.592 C 105.969 43.896 105.259 44.049 104.386 44.049 L 99.783 44.049 L 99.783 40.022 L 102.404 40.022 C 103.009 40.022 103.445 39.921 103.714 39.718 C 103.984 39.515 104.241 39.119 104.487 38.533 L 104.925 37.382 L 98.274 19.885 Z M 118.042 23.896 C 118.769 22.554 119.788 21.516 121.099 20.782 C 122.409 20.05 123.925 19.683 125.651 19.683 C 127.397 19.683 128.938 20.027 130.27 20.716 C 131.602 21.405 132.643 22.374 133.394 23.626 C 134.144 24.878 134.53 26.351 134.553 28.041 C 134.553 28.651 134.509 29.193 134.419 29.666 L 121.89 29.666 L 121.89 29.8 C 122.002 31.065 122.404 32.056 123.098 32.779 C 123.793 33.502 124.744 33.862 125.953 33.862 C 126.915 33.862 127.717 33.653 128.354 33.236 C 128.992 32.819 129.413 32.203 129.615 31.392 L 134.284 31.392 C 134.103 32.543 133.668 33.581 132.973 34.506 C 132.279 35.43 131.361 36.159 130.218 36.689 C 129.076 37.22 127.765 37.484 126.289 37.484 C 124.362 37.484 122.7 37.124 121.3 36.401 C 119.901 35.68 118.826 34.648 118.076 33.304 C 117.326 31.962 116.951 30.399 116.951 28.617 C 116.951 26.811 117.315 25.237 118.042 23.896 Z M 129.817 26.552 C 129.659 25.493 129.229 24.674 128.524 24.099 C 127.819 23.523 126.928 23.236 125.853 23.236 C 124.823 23.236 123.955 23.534 123.25 24.133 C 122.545 24.73 122.125 25.538 121.989 26.552 Z M 147.654 19.885 L 147.654 24.216 L 145.773 24.216 C 144.428 24.216 143.443 24.622 142.816 25.433 C 142.189 26.246 141.875 27.351 141.875 28.75 L 141.875 37.277 L 137.138 37.277 L 137.138 19.883 L 141.438 19.883 L 141.875 22.489 C 142.389 21.631 143.028 20.984 143.789 20.543 C 144.55 20.102 145.569 19.883 146.846 19.883 L 147.654 19.883 Z M 153.298 31.493 C 153.366 32.261 153.735 32.88 154.407 33.355 C 155.078 33.828 155.94 34.065 156.994 34.065 C 158.001 34.065 158.797 33.901 159.379 33.574 C 159.961 33.247 160.252 32.779 160.252 32.169 C 160.252 31.718 160.118 31.38 159.848 31.155 C 159.581 30.93 159.199 30.766 158.706 30.664 C 158.213 30.563 157.406 30.444 156.287 30.308 C 154.764 30.104 153.498 29.845 152.491 29.529 C 151.484 29.212 150.677 28.716 150.072 28.04 C 149.466 27.363 149.165 26.46 149.165 25.333 C 149.165 24.205 149.472 23.207 150.088 22.338 C 150.704 21.469 151.571 20.798 152.691 20.324 C 153.81 19.851 155.098 19.613 156.554 19.613 C 158.906 19.636 160.804 20.144 162.248 21.137 C 163.692 22.129 164.471 23.505 164.583 25.264 L 160.082 25.264 C 160.014 24.61 159.673 24.075 159.058 23.656 C 158.442 23.239 157.652 23.03 156.688 23.03 C 155.792 23.03 155.071 23.2 154.521 23.538 C 153.973 23.876 153.698 24.327 153.698 24.892 C 153.698 25.299 153.842 25.602 154.135 25.806 C 154.426 26.009 154.807 26.156 155.278 26.246 C 155.747 26.336 156.531 26.439 157.629 26.55 C 159.957 26.822 161.745 27.324 162.987 28.056 C 164.23 28.79 164.851 30.047 164.851 31.829 C 164.851 32.957 164.521 33.95 163.86 34.808 C 163.2 35.666 162.282 36.326 161.105 36.788 C 159.929 37.25 158.568 37.482 157.024 37.482 C 154.628 37.482 152.678 36.946 151.179 35.874 C 149.677 34.802 148.883 33.342 148.793 31.491 L 153.298 31.491 Z" fill="rgb(255,255,255)"/></svg>