<svg xmlns="http://www.w3.org/2000/svg" xmlns:xlink="http://www.w3.org/1999/xlink" viewBox="0 0 165 43"><path d="M 45.649 10.975 C 45.248 10.981 44.56 11.326 44.028 11.821 C 43.497 12.312 43.019 12.907 42.69 13.458 L 42.686 13.464 L 42.684 13.466 L 42.646 13.532 C 42.391 13.926 41.973 13.791 41.784 13.551 C 41.485 13.137 41.291 12.924 40.985 12.609 C 40.033 11.631 38.969 11.153 37.164 11.153 C 31.428 11.153 28.634 15.347 28.634 20.521 C 28.634 25.694 31.362 29.888 37.45 29.888 C 39.596 29.888 40.838 29.61 41.699 28.901 L 41.699 30.184 C 41.699 31.65 40.671 33.07 38.581 33.07 L 31.121 33.07 C 30.504 33.07 30.238 33.383 30.46 34.046 C 31.626 36.768 34.327 37.549 38.019 37.549 C 43.513 37.549 46.298 32.652 46.298 28.401 L 46.298 11.838 C 46.298 11.223 45.992 10.969 45.649 10.975 Z M 41.699 22.493 C 41.699 24.102 40.398 25.422 38.811 25.422 L 36.124 25.422 C 34.536 25.422 33.236 24.104 33.236 22.493 L 33.236 18.512 C 33.236 16.901 34.536 15.583 36.124 15.583 L 38.811 15.583 C 40.399 15.583 41.699 16.903 41.699 18.512 Z M 4.154 5.56 L 0.433 5.56 C 0.195 5.56 0 5.759 0 6.001 L 0 28.888 C 0 29.13 0.195 29.328 0.433 29.328 L 4.154 29.328 C 4.391 29.328 4.586 29.13 4.586 28.888 L 4.586 6.001 C 4.585 5.759 4.391 5.56 4.154 5.56 Z M 16.729 11.22 C 10.743 11.22 7.913 15.429 7.913 20.622 C 7.913 25.815 10.641 30.024 16.729 30.024 C 22.815 30.024 25.545 25.815 25.545 20.622 C 25.545 15.431 22.714 11.22 16.729 11.22 Z M 21.044 23.118 C 21.044 24.735 19.744 26.058 18.156 26.058 L 15.302 26.058 C 13.713 26.058 12.414 24.735 12.414 23.118 L 12.414 18.127 C 12.414 16.51 13.713 15.187 15.302 15.187 L 18.156 15.187 C 19.744 15.187 21.044 16.51 21.044 18.127 Z M 72.723 5.475 L 70.894 5.475 C 70.633 5.475 70.421 5.692 70.421 5.957 L 70.421 28.846 C 70.421 29.112 70.633 29.328 70.894 29.328 L 72.723 29.328 C 72.984 29.328 73.197 29.11 73.197 28.846 L 73.197 5.957 C 73.197 5.692 72.984 5.475 72.723 5.475 Z M 108.774 11.728 L 106.945 11.728 C 106.684 11.728 106.471 11.944 106.471 12.21 L 106.471 20.656 C 106.471 21.182 106.443 21.712 106.401 22.227 C 106.006 25.498 103.821 26.765 101.643 26.765 C 98.846 26.765 98.226 24.894 98.226 21.851 L 98.226 12.21 C 98.226 11.944 98.013 11.728 97.752 11.728 L 95.923 11.728 C 95.662 11.728 95.449 11.944 95.449 12.21 L 95.449 23.369 C 95.449 26.765 96.721 29.33 100.766 29.33 C 102.806 29.327 103.976 28.94 105.279 27.892 C 105.54 27.683 106.358 26.679 106.674 27.206 C 107.263 28.228 108.146 29.33 108.72 29.33 C 109.063 29.336 109.246 29.031 109.246 28.396 C 109.227 23.006 109.246 17.605 109.246 12.212 C 109.247 12.084 109.197 11.961 109.109 11.87 C 109.02 11.779 108.9 11.728 108.774 11.728 Z M 122.264 11.728 C 120.224 11.731 119.054 12.118 117.75 13.166 C 117.489 13.375 116.67 14.378 116.355 13.851 C 115.765 12.83 114.883 11.728 114.309 11.728 C 113.966 11.722 113.781 12.027 113.781 12.661 C 113.787 14.404 113.781 16.146 113.781 17.884 L 113.781 28.846 C 113.781 29.112 113.994 29.328 114.255 29.328 L 116.082 29.328 C 116.343 29.328 116.556 29.112 116.556 28.846 C 116.556 25.634 116.368 21.993 116.626 18.829 C 117.021 15.558 119.206 14.292 121.384 14.292 C 124.18 14.292 124.802 16.162 124.802 19.205 L 124.802 28.846 C 124.802 29.112 125.014 29.328 125.275 29.328 L 127.103 29.328 C 127.364 29.328 127.577 29.112 127.577 28.846 L 127.577 17.687 C 127.581 14.292 126.309 11.728 122.264 11.728 Z M 84.329 11.61 C 78.935 11.61 76.409 15.865 76.409 20.994 C 76.409 26.122 78.844 30.179 84.329 30.179 C 89.814 30.179 92.322 25.775 92.322 20.646 C 92.322 15.444 89.723 11.61 84.329 11.61 Z M 89.364 23.607 C 89.364 25.498 87.837 27.059 85.975 27.047 L 82.796 27.026 C 80.932 27.014 79.407 25.477 79.407 23.586 L 79.407 17.95 C 79.407 16.058 80.932 14.498 82.796 14.51 L 85.975 14.53 C 87.839 14.542 89.364 16.079 89.364 17.97 Z M 58.238 11.22 C 52.253 11.22 49.422 15.429 49.422 20.622 C 49.422 25.815 52.15 30.024 58.238 30.024 C 64.325 30.024 67.055 25.815 67.055 20.622 C 67.053 15.431 64.224 11.22 58.238 11.22 Z M 62.553 23.118 C 62.553 24.735 61.254 26.058 59.665 26.058 L 56.811 26.058 C 55.223 26.058 53.923 24.735 53.923 23.118 L 53.923 18.127 C 53.923 16.51 55.223 15.187 56.811 15.187 L 59.665 15.187 C 61.254 15.187 62.553 16.51 62.553 18.127 Z M 157.123 11.61 C 151.73 11.61 149.081 15.891 149.081 21.018 C 149.081 26.145 151.637 30.179 157.123 30.179 C 161.542 30.179 162.889 27.127 161.388 27.127 C 159.563 27.127 157.272 27.13 155.446 27.118 C 153.582 27.106 152.102 25.479 152.102 23.587 L 152.102 22.302 L 163.351 22.302 C 164.748 22.302 165.066 21.069 165.066 20.524 C 165.066 15.072 162.273 11.61 157.123 11.61 Z M 162.036 19.399 L 152.102 19.399 L 152.102 17.95 C 152.102 16.058 153.627 14.498 155.492 14.51 L 158.646 14.53 C 160.511 14.542 162.036 16.079 162.036 17.97 Z M 145.927 12.44 C 145.927 11.806 145.712 11.501 145.369 11.507 C 144.874 11.507 144.198 12.31 143.529 13.346 L 143.51 13.375 C 143.355 13.602 143.048 13.684 142.759 13.475 C 141.89 12.846 140.722 11.538 138.054 11.538 C 135.989 11.538 133.951 12.607 132.604 14.523 C 130.657 17.293 130.385 22.571 131.796 25.627 C 132.851 27.911 135.005 29.462 138.648 29.462 C 140.444 29.462 141.802 28.953 142.903 28.035 L 142.903 29.576 C 142.903 30.972 141.715 32.783 139.559 32.783 C 137.733 32.795 135.442 32.792 133.618 32.792 C 132.116 32.792 133.464 35.818 137.883 35.818 C 143.023 35.818 145.662 32.319 145.916 27.519 L 145.925 19.885 C 145.952 19.35 145.926 18.862 145.926 18.736 L 145.926 12.44 Z M 143.211 21.292 C 142.843 25.307 140.803 27.029 138.439 27.029 C 134.989 27.029 133.896 24.476 133.896 20.597 C 133.896 17.552 134.794 14.127 138.493 14.127 C 140.697 14.127 142.523 15.328 143.104 18.536 C 143.292 19.566 143.307 20.255 143.211 21.292 Z" fill="rgb(255,255,255)"/></svg>