<svg xmlns="http://www.w3.org/2000/svg" viewBox="0 0 1080 1080" width="1080" height="1080" preserveAspectRatio="xMidYMid slice" style="width: 100%; height: 100%; transform: translate3d(0px, 0px, 0px);"><defs><clipPath id="__lottie_element_21"><rect width="1080" height="1080" x="0" y="0"></rect></clipPath></defs><g clip-path="url(#__lottie_element_21)"><g transform="matrix(1,0,0,1,0,0)" opacity="1" style="display: block;"><g opacity="1" transform="matrix(1,0,0,1,540.5,540.375)"><path fill="rgb(219,215,252)" fill-opacity="1" d=" M539.5,0 C539.5,297.9580078125 297.9580078125,539.5 0,539.5 C-297.9580078125,539.5 -539.5,297.9580078125 -539.5,0 C-539.5,-297.9580078125 -297.9580078125,-539.5 0,-539.5 C297.9580078125,-539.5 539.5,-297.9580078125 539.5,0z"></path></g></g><g transform="matrix(1,0,0,1,0,0)" opacity="1" style="display: block;"><g opacity="1" transform="matrix(1,0,0,1,540.5,540.375)"><path fill="rgb(226,254,165)" fill-opacity="1" d=" M413.7659912109375,0 C413.7659912109375,228.67300415039062 228.95599365234375,414.04901123046875 0.28299999237060547,414.04901123046875 C-228.38999938964844,414.04901123046875 -413.7659912109375,228.67300415039062 -413.7659912109375,0 C-413.7659912109375,-228.67300415039062 -228.38999938964844,-414.04901123046875 0.28299999237060547,-414.04901123046875 C228.95599365234375,-414.04901123046875 413.7659912109375,-228.67300415039062 413.7659912109375,0z"></path></g><g opacity="1" transform="matrix(1,0,0,1,540.219970703125,192.60000610351562)"><path stroke-linecap="round" stroke-linejoin="round" fill-opacity="0" stroke="rgb(42,65,58)" stroke-opacity="1" stroke-width="10.091" d=" M0.6639999747276306,-25.625 C0.6639999747276306,-25.625 -0.6639999747276306,25.625 -0.6639999747276306,25.625"></path></g><g opacity="1" transform="matrix(1,0,0,1,888.2750244140625,540.094970703125)"><path stroke-linecap="round" stroke-linejoin="round" fill-opacity="0" stroke="rgb(42,65,58)" stroke-opacity="1" stroke-width="10.091" d=" M25.625,0.6639999747276306 C25.625,0.6639999747276306 -25.625,-0.6639999747276306 -25.625,-0.6639999747276306"></path></g><g opacity="1" transform="matrix(1,0,0,1,786.6119995117188,786.0919799804688)"><path stroke-linecap="round" stroke-linejoin="round" fill-opacity="0" stroke="rgb(42,65,58)" stroke-opacity="1" stroke-width="10.091" d=" M17.64900016784668,18.589000701904297 C17.64900016784668,18.589000701904297 -17.649999618530273,-18.589000701904297 -17.649999618530273,-18.589000701904297"></path></g><g opacity="1" transform="matrix(1,0,0,1,540.780029296875,888.1500244140625)"><path stroke-linecap="round" stroke-linejoin="round" fill-opacity="0" stroke="rgb(42,65,58)" stroke-opacity="1" stroke-width="10.091" d=" M-0.6639999747276306,25.625 C-0.6639999747276306,25.625 0.6639999747276306,-25.625 0.6639999747276306,-25.625"></path></g><g opacity="1" transform="matrix(1,0,0,1,192.72500610351562,540.655029296875)"><path stroke-linecap="round" stroke-linejoin="round" fill-opacity="0" stroke="rgb(42,65,58)" stroke-opacity="1" stroke-width="10.091" d=" M-25.625,-0.6639999747276306 C-25.625,-0.6639999747276306 25.625,0.6639999747276306 25.625,0.6639999747276306"></path></g><g opacity="1" transform="matrix(1,0,0,1,294.38800048828125,294.6579895019531)"><path stroke-linecap="round" stroke-linejoin="round" fill-opacity="0" stroke="rgb(42,65,58)" stroke-opacity="1" stroke-width="10.091" d=" M-17.649999618530273,-18.589000701904297 C-17.649999618530273,-18.589000701904297 17.649999618530273,18.589000701904297 17.649999618530273,18.589000701904297"></path></g><g opacity="1" transform="matrix(1,0,0,1,540.5,540.375)"><path stroke-linecap="round" stroke-linejoin="round" fill-opacity="0" stroke="rgb(42,65,58)" stroke-opacity="1" stroke-width="10.091" d=" M413.7659912109375,0 C413.7659912109375,228.67300415039062 228.95599365234375,414.04901123046875 0.28299999237060547,414.04901123046875 C-228.38999938964844,414.04901123046875 -413.7659912109375,228.67300415039062 -413.7659912109375,0 C-413.7659912109375,-228.67300415039062 -228.38999938964844,-414.04901123046875 0.28299999237060547,-414.04901123046875 C228.95599365234375,-414.04901123046875 413.7659912109375,-228.67300415039062 413.7659912109375,0z"></path></g></g><g transform="matrix(1,0,0,1,0,0)" opacity="1" style="display: block;"><g opacity="1" transform="matrix(1,0,0,1,562.4819946289062,506.90301513671875)"><path fill="rgb(219,215,252)" fill-opacity="1" d=" M4.191999912261963,-121.09300231933594 C-4.552999973297119,-112.52899932861328 -26.166000366210938,-87.21399688720703 -44.03499984741211,-73.86199951171875 C-44.03499984741211,-73.86199951171875 -108.7040023803711,-10.529000282287598 -108.7040023803711,-10.529000282287598 C-108.7040023803711,-10.529000282287598 20.200000762939453,121.09300231933594 20.200000762939453,121.09300231933594 C20.200000762939453,121.09300231933594 24.34600067138672,117.03299713134766 24.34600067138672,117.03299713134766 C70.38700103759766,65.5790023803711 99.51799774169922,49.88800048828125 108.70500183105469,34.41600036621094"></path></g><g opacity="1" transform="matrix(1,0,0,1,661.9990234375,462.99700927734375)"><path fill="rgb(219,215,252)" fill-opacity="1" d=" M-50.74300003051758,137.01499938964844 C-50.74300003051758,137.01499938964844 82.58699798583984,6.438000202178955 82.58699798583984,6.438000202178955 C82.58699798583984,6.438000202178955 95.3270034790039,-31.2810001373291 95.3270034790039,-31.2810001373291 C85.61900329589844,-21.690000534057617 69.9749984741211,-21.78499984741211 60.38399887084961,-31.493000030517578 C50.79399871826172,-41.20100021362305 50.888999938964844,-56.845001220703125 60.59700012207031,-66.43499755859375 C50.888999938964844,-56.845001220703125 35.244998931884766,-56.939998626708984 25.65399932861328,-66.64800262451172 C16.101999282836914,-76.31700134277344 16.172000885009766,-91.86799621582031 25.766000747680664,-101.46800231933594 C15.998000144958496,-92.19499969482422 0.578000009059906,-92.41699981689453 -8.878000259399414,-102.0739974975586 C-18.424999237060547,-111.82499694824219 -18.260000228881836,-127.46900177001953 -8.510000228881836,-137.01499938964844 C-8.510000228881836,-137.01499938964844 -46.60599899291992,-124.9000015258789 -46.60599899291992,-124.9000015258789 C-46.60599899291992,-124.9000015258789 -95.32599639892578,-77.18699645996094 -95.32599639892578,-77.18699645996094"></path></g><g opacity="1" transform="matrix(1,0,0,1,429.5329895019531,649.051025390625)"><path fill="rgb(219,215,252)" fill-opacity="1" d=" M-24.2450008392334,152.67599487304688 C-24.2450008392334,152.67599487304688 153.1479949951172,-21.05500030517578 153.1479949951172,-21.05500030517578 C153.1479949951172,-21.05500030517578 24.2450008392334,-152.67599487304688 24.2450008392334,-152.67599487304688 C24.2450008392334,-152.67599487304688 -153.1479949951172,21.054000854492188 -153.1479949951172,21.054000854492188 C-153.1479949951172,21.054000854492188 -24.2450008392334,152.67599487304688 -24.2450008392334,152.67599487304688z"></path></g><g opacity="1" transform="matrix(1,0,0,1,297.7619934082031,779.677001953125)"><path fill="rgb(17,44,36)" fill-opacity="1" d=" M67.78600311279297,39.284000396728516 C67.78600311279297,39.284000396728516 57.1150016784668,49.736000061035156 57.1150016784668,49.736000061035156 C38.25600051879883,68.20899963378906 7.993000030517578,67.89399719238281 -10.477999687194824,49.034000396728516 C-10.477999687194824,49.034000396728516 -49.31700134277344,9.37600040435791 -49.31700134277344,9.37600040435791 C-67.78600311279297,-9.482000350952148 -67.47200012207031,-39.742000579833984 -48.6150016784668,-58.21200180053711 C-48.6150016784668,-58.21200180053711 -38.40800094604492,-68.20899963378906 -38.40800094604492,-68.20899963378906"></path></g><g opacity="1" transform="matrix(1,0,0,1,769.3519897460938,313.9339904785156)"><path fill="rgb(17,44,36)" fill-opacity="1" d=" M-26.99799919128418,27.049999237060547 C-26.99799919128418,27.049999237060547 -26.99799919128418,27.049999237060547 -26.99799919128418,27.049999237060547 C-11.11299991607666,42.7130012512207 15.673999786376953,36.4630012512207 22.98699951171875,15.387999534606934 C22.98699951171875,15.387999534606934 43.14899826049805,-42.7140007019043 43.14899826049805,-42.7140007019043 C43.14899826049805,-42.7140007019043 -15.232000350952148,-23.375 -15.232000350952148,-23.375 C-36.76300048828125,-16.242000579833984 -43.14899826049805,11.125 -26.99799919128418,27.049999237060547z"></path></g><g opacity="1" transform="matrix(1,0,0,1,321.22698974609375,755.6900024414062)"><path stroke-linecap="round" stroke-linejoin="round" fill-opacity="0" stroke="rgb(17,44,36)" stroke-opacity="1" stroke-width="10.091" d=" M73.55699920654297,56.08300018310547 C73.55699920654297,56.08300018310547 -55.79899978637695,-74.18399810791016 -55.79899978637695,-74.18399810791016 C-55.79899978637695,-74.18399810791016 -73.55799865722656,-56.757999420166016 -73.55799865722656,-56.757999420166016 C-73.55799865722656,-56.757999420166016 55.0620002746582,74.18399810791016 55.0620002746582,74.18399810791016 C55.0620002746582,74.18399810791016 73.55699920654297,56.08300018310547 73.55699920654297,56.08300018310547z"></path></g><g opacity="1" transform="matrix(1,0,0,1,733.0020141601562,352.23699951171875)"><path stroke-linecap="round" stroke-linejoin="round" fill-opacity="0" stroke="rgb(17,44,36)" stroke-opacity="1" stroke-width="10.091" d=" M24.601999282836914,79.57499694824219 C24.601999282836914,79.57499694824219 79.66899871826172,-79.57499694824219 79.66899871826172,-79.57499694824219 C79.66899871826172,-79.57499694824219 -79.66899871826172,-26.725000381469727 -79.66899871826172,-26.725000381469727"></path></g><g opacity="1" transform="matrix(1,0,0,1,484.07000732421875,595.1519775390625)"><path stroke-linecap="round" stroke-linejoin="round" fill-opacity="0" stroke="rgb(17,44,36)" stroke-opacity="1" stroke-width="10.091" d=" M36.54199981689453,-35.46900177001953 C36.54199981689453,-35.46900177001953 -36.54199981689453,35.46900177001953 -36.54199981689453,35.46900177001953"></path></g><g opacity="1" transform="matrix(1,0,0,1,395.9100036621094,682.9359741210938)"><path stroke-linecap="round" stroke-linejoin="round" fill-opacity="0" stroke="rgb(17,44,36)" stroke-opacity="1" stroke-width="10.091" d=" M20.424999237060547,-20.701000213623047 C20.424999237060547,-20.701000213623047 -20.424999237060547,20.701000213623047 -20.424999237060547,20.701000213623047"></path></g><g opacity="1" transform="matrix(1,0,0,1,581.3070068359375,563.85400390625)"><path stroke-linecap="round" stroke-linejoin="round" fill-opacity="0" stroke="rgb(17,44,36)" stroke-opacity="1" stroke-width="10.091" d=" M-127.52899932861328,-67.47899627685547 C-127.52899932861328,-67.47899627685547 -62.86000061035156,-130.81300354003906 -62.86000061035156,-130.81300354003906 C-62.86000061035156,-130.81300354003906 -14.633000373840332,-178.04400634765625 -14.633000373840332,-178.04400634765625 C-14.633000373840332,-178.04400634765625 34.08599853515625,-225.75799560546875 34.08599853515625,-225.75799560546875 C34.08599853515625,-225.75799560546875 72.18199920654297,-237.8719940185547 72.18199920654297,-237.8719940185547 C62.430999755859375,-228.3249969482422 62.266998291015625,-212.6820068359375 71.81400299072266,-202.9320068359375 C81.36100006103516,-193.18099975585938 97.00499725341797,-193.01499938964844 106.75499725341797,-202.56199645996094 C106.75499725341797,-202.56199645996094 106.55899810791016,-202.447998046875 106.55899810791016,-202.447998046875 C96.85099792480469,-192.85699462890625 96.75599670410156,-177.21299743652344 106.34700012207031,-167.5050048828125 C115.93699645996094,-157.79800415039062 131.58099365234375,-157.70199584960938 141.28900146484375,-167.29200744628906 C131.58099365234375,-157.70199584960938 131.48599243164062,-142.0570068359375 141.07699584960938,-132.35000610351562 C150.66700744628906,-122.64199829101562 166.31100463867188,-122.5479965209961 176.0189971923828,-132.13800048828125 C176.0189971923828,-132.13800048828125 163.27999877929688,-94.41899871826172 163.27999877929688,-94.41899871826172 C163.27999877929688,-94.41899871826172 29.947999954223633,36.15700149536133 29.947999954223633,36.15700149536133 C29.947999954223633,36.15700149536133 1.3739999532699585,64.14299774169922 1.3739999532699585,64.14299774169922 C1.3739999532699585,64.14299774169922 -176.01800537109375,237.8719940185547 -176.01800537109375,237.8719940185547"></path></g><g opacity="1" transform="matrix(1,0,0,1,365.08099365234375,583.239990234375)"><path stroke-linecap="round" stroke-linejoin="round" fill-opacity="0" stroke="rgb(17,44,36)" stroke-opacity="1" stroke-width="10.091" d=" M-88.6969985961914,86.86499786376953 C-88.6969985961914,86.86499786376953 88.6969985961914,-86.86499786376953 88.6969985961914,-86.86499786376953"></path></g><g opacity="1" transform="matrix(1,0,0,1,786.2169799804688,294.26300048828125)"><path stroke-linecap="round" stroke-linejoin="round" fill-opacity="0" stroke="rgb(17,44,36)" stroke-opacity="1" stroke-width="10.091" d=" M18.589000701904297,-17.649999618530273 C18.589000701904297,-17.649999618530273 -18.589000701904297,17.649999618530273 -18.589000701904297,17.649999618530273"></path></g><g opacity="1" transform="matrix(1,0,0,1,294.7829895019531,786.4869995117188)"><path stroke-linecap="round" stroke-linejoin="round" fill-opacity="0" stroke="rgb(17,44,36)" stroke-opacity="1" stroke-width="10.091" d=" M-18.589000701904297,17.649999618530273 C-18.589000701904297,17.649999618530273 18.589000701904297,-17.649999618530273 18.589000701904297,-17.649999618530273"></path></g></g><g transform="matrix(-0.8386120200157166,-0.5980215668678284,0.5980215668678284,-0.8386120200157166,540,540)" opacity="1" style="display: block;"><g opacity="1" transform="matrix(1,0,0,1,-2,-2)"><path stroke-linecap="round" stroke-linejoin="miter" fill-opacity="0" stroke-miterlimit="4" stroke="rgb(17,44,36)" stroke-opacity="1" stroke-width="64" d="M0 0"></path></g></g><g transform="matrix(0.7594806551933289,0.6957651376724243,-0.6957651376724243,0.7594806551933289,540,540)" opacity="1" style="display: block;"><g opacity="1" transform="matrix(1,0,0,1,-2,-2)"><path stroke-linecap="round" stroke-linejoin="miter" fill-opacity="0" stroke-miterlimit="4" stroke="rgb(17,44,36)" stroke-opacity="1" stroke-width="64" d="M0 0"></path></g></g><g transform="matrix(1,0,0,1,0,0)" opacity="1" style="display: block;"><g opacity="1" transform="matrix(1,0,0,1,613.6589965820312,630.6209716796875)"><path fill="rgb(226,254,165)" fill-opacity="1" d=" M-14.04699993133545,10.755000114440918 C-55.43000030517578,-43.29100036621094 -74.93000030517578,-97.85900115966797 -74.93000030517578,-97.85900115966797 C-74.93000030517578,-97.85900115966797 -27.33799934387207,-64.8010025024414 14.045000076293945,-10.755000114440918 C55.428001403808594,43.29100036621094 74.93000030517578,97.85900115966797 74.93000030517578,97.85900115966797 C74.93000030517578,97.85900115966797 27.336000442504883,64.8010025024414 -14.04699993133545,10.755000114440918z"></path></g><g opacity="1" transform="matrix(1,0,0,1,613.6589965820312,630.6199951171875)"><path stroke-linecap="round" stroke-linejoin="round" fill-opacity="0" stroke="rgb(17,44,36)" stroke-opacity="1" stroke-width="10.091" d=" M-13.973999977111816,10.847999572753906 C-55.7140007019043,-42.92300033569336 -75.5780029296875,-97.36000061035156 -75.5780029296875,-97.36000061035156 C-75.5780029296875,-97.36000061035156 -27.766000747680664,-64.61900329589844 13.973999977111816,-10.847999572753906 C55.71500015258789,42.92300033569336 75.5780029296875,97.36000061035156 75.5780029296875,97.36000061035156 C75.5780029296875,97.36000061035156 27.766000747680664,64.61900329589844 -13.973999977111816,10.847999572753906z"></path></g></g><g transform="matrix(0.9781476259231567,-0.2079116851091385,0.2079116851091385,0.9781476259231567,-100.4720458984375,124.07260131835938)" opacity="1" style="display: block;"><g opacity="1" transform="matrix(1,0,0,1,541.031005859375,364.82000732421875)"><path fill="rgb(226,254,165)" fill-opacity="1" d=" M26.11199951171875,0.11100000143051147 C25.687999725341797,100.58100128173828 -0.7680000066757202,181.91600036621094 -0.7680000066757202,181.91600036621094 C-0.7680000066757202,181.91600036621094 -26.535999298095703,100.35900115966797 -26.11199951171875,-0.11100000143051147 C-25.687000274658203,-100.58000183105469 0.7680000066757202,-181.91600036621094 0.7680000066757202,-181.91600036621094 C0.7680000066757202,-181.91600036621094 26.535999298095703,-100.35900115966797 26.11199951171875,0.11100000143051147z"></path><path stroke-linecap="round" stroke-linejoin="round" fill-opacity="0" stroke="rgb(17,44,36)" stroke-opacity="1" stroke-width="10.091" d=" M26.11199951171875,0.11100000143051147 C25.687999725341797,100.58100128173828 -0.7680000066757202,181.91600036621094 -0.7680000066757202,181.91600036621094 C-0.7680000066757202,181.91600036621094 -26.535999298095703,100.35900115966797 -26.11199951171875,-0.11100000143051147 C-25.687000274658203,-100.58000183105469 0.7680000066757202,-181.91600036621094 0.7680000066757202,-181.91600036621094 C0.7680000066757202,-181.91600036621094 26.535999298095703,-100.35900115966797 26.11199951171875,0.11100000143051147z"></path></g></g><g transform="matrix(1,0,0,1,0,0)" opacity="1" style="display: block;"><g opacity="1" transform="matrix(1,0,0,1,540.5,540.375)"><path fill="rgb(17,44,36)" fill-opacity="1" d=" M35.505001068115234,0 C35.505001068115234,19.62299919128418 19.645999908447266,35.529998779296875 0.024000000208616257,35.529998779296875 C-19.599000930786133,35.529998779296875 -35.505001068115234,19.62299919128418 -35.505001068115234,0 C-35.505001068115234,-19.62299919128418 -19.599000930786133,-35.529998779296875 0.024000000208616257,-35.529998779296875 C19.645999908447266,-35.529998779296875 35.505001068115234,-19.62299919128418 35.505001068115234,0z"></path></g></g></g></svg>